<svg width="108" height="45" viewBox="0 0 108 45" fill="none" xmlns="http://www.w3.org/2000/svg">
<g clip-path="url(#clip0_31_6092)">
<path d="M13.3342 21.4706C9.94098 20.5383 9.44477 17.2956 9.42184 13.7362L9.45296 2.52556H15.5466C16.693 2.52556 17.8393 2.83089 18.7957 3.51502C20.0829 4.4359 21.357 6.17317 20.8477 9.39627C20.1501 13.8162 15.1585 14.564 11.3264 13.586C11.3952 16.0939 13.2163 18.2524 15.5155 18.561C16.0772 18.6361 16.616 18.6704 17.1384 18.6704C22.6229 18.6704 25.4249 14.2489 25.4249 6.98956V2.52393C27.1739 2.52393 28.5921 3.93791 28.5954 5.68171C28.6052 13.6921 28.6544 9.18237 28.6544 20.4599L25.6083 12.5998C24.5111 18.0777 21.2817 21.9049 16.2263 21.9049C16.2263 21.9049 14.9227 21.9131 13.3358 21.4706" fill="white"/>
<path d="M45.6432 21.4706C44.0563 21.9131 42.7528 21.9049 42.7528 21.9049C37.6957 21.9049 34.4663 18.0777 33.3707 12.5998L30.3246 20.4599C30.3246 9.18237 30.3738 13.6921 30.3836 5.68171C30.3852 3.93791 31.8051 2.52393 33.5541 2.52393V6.98956C33.5541 14.2489 36.3561 18.6704 41.8406 18.6704C42.363 18.6704 42.9018 18.6361 43.4635 18.561C45.7627 18.2508 47.5838 16.0939 47.6526 13.586C43.8205 14.564 38.8289 13.8145 38.1313 9.39627C37.622 6.17317 38.8961 4.4359 40.1833 3.51502C41.1397 2.83089 42.286 2.52556 43.4324 2.52556H49.5261L49.5572 13.7362C49.5326 17.2973 49.0364 20.5383 45.6448 21.4706" fill="white"/>
<path d="M45.6448 23.4354C49.038 24.3677 49.5342 27.6104 49.5572 31.1699L49.5261 42.3805H43.4324C42.286 42.3805 41.1397 42.0752 40.1833 41.391C38.8961 40.4701 37.622 38.7329 38.1313 35.5098C38.8289 31.0915 43.8205 30.3421 47.6526 31.3201C47.5838 28.8121 45.7627 26.6536 43.4635 26.345C42.9018 26.2699 42.363 26.2356 41.8406 26.2356C36.3561 26.2356 33.5541 30.6572 33.5541 37.9165V42.3821C31.8051 42.3821 30.3869 40.9698 30.3836 39.2243C30.3738 31.0833 30.3246 35.8249 30.3246 24.5392L33.3707 32.3063C34.4679 26.8283 37.6973 23.0011 42.7527 23.0011C42.7527 23.0011 44.0563 22.9929 45.6432 23.4354" fill="white"/>
<path d="M13.334 23.4354C14.9208 22.9929 16.2244 23.0011 16.2244 23.0011C21.2815 23.0011 24.5109 26.8283 25.6065 32.3063L28.6525 24.5392C28.6525 35.8249 28.6034 31.0833 28.5936 39.2243C28.5919 40.9681 27.1737 42.3821 25.4231 42.3821V37.9165C25.4231 30.6572 22.6211 26.2356 17.1366 26.2356C16.6142 26.2356 16.0754 26.2699 15.5137 26.345C13.2144 26.6553 11.3933 28.8121 11.3246 31.3201C15.1567 30.3421 20.1482 31.0915 20.8458 35.5098C21.3552 38.7329 20.0811 40.4701 18.7939 41.391C17.8375 42.0752 16.6911 42.3805 15.5448 42.3805H9.4511L9.41998 31.1699C9.44455 27.6088 9.94076 24.3677 13.3323 23.4354" fill="white"/>
<path d="M29.4683 51.2845L0.55072 22.4547L29.4683 -6.37683L58.3859 22.4547L29.4683 51.2862V51.2845ZM1.85756 22.4547L29.4683 49.9832L57.079 22.4547L29.4683 -5.07388L1.85756 22.4547Z" fill="white"/>
<path d="M30.9759 0.121139C30.9759 0.952221 30.2995 1.62656 29.466 1.62656C28.6324 1.62656 27.9561 0.952221 27.9561 0.121139C27.9561 -0.709942 28.6324 -1.38428 29.466 -1.38428C30.2995 -1.38428 30.9759 -0.709942 30.9759 0.121139Z" fill="white"/>
<path d="M30.9759 44.7839C30.9759 45.6149 30.2995 46.2893 29.466 46.2893C28.6324 46.2893 27.9561 45.6149 27.9561 44.7839C27.9561 43.9528 28.6324 43.2784 29.466 43.2784C30.2995 43.2784 30.9759 43.9528 30.9759 44.7839Z" fill="white"/>
<path d="M51.8676 23.9579C51.0341 23.9579 50.3577 23.2835 50.3577 22.4524C50.3577 21.6214 51.0341 20.947 51.8676 20.947C52.7012 20.947 53.3775 21.6214 53.3775 22.4524C53.3775 23.2835 52.7012 23.9579 51.8676 23.9579Z" fill="white"/>
<path d="M7.06799 23.9579C6.23442 23.9579 5.55807 23.2835 5.55807 22.4524C5.55807 21.6214 6.23442 20.947 7.06799 20.947C7.90155 20.947 8.5779 21.6214 8.5779 22.4524C8.5779 23.2835 7.90155 23.9579 7.06799 23.9579Z" fill="white"/>
<path d="M87.3308 40.6317L88.9832 31.4212L90.5865 31.2416L88.9226 40.6317H87.3308Z" fill="white"/>
<path d="M93.9777 34.5538C95.219 34.5538 95.9068 35.3719 95.9068 36.7058C95.9068 38.5688 94.4116 40.7094 92.3498 40.7094C91.1085 40.7094 90.5173 39.9404 90.5173 38.6537C90.5173 36.5736 92.0485 34.5538 93.9777 34.5538ZM92.7347 40.4939C93.6632 40.4939 94.2659 37.981 94.2659 36.0086C94.2659 35.2037 94.1447 34.7579 93.6992 34.7579C92.8182 34.7579 92.132 37.2593 92.132 39.3754C92.132 40.1575 92.3007 40.4939 92.7347 40.4939Z" fill="white"/>
<path d="M100.273 38.3271H100.237C99.5735 40.0823 98.8022 40.7077 98.0177 40.7077C97.2939 40.7077 96.8714 40.2995 96.7879 39.5647C96.7764 39.408 96.7764 39.2284 96.7879 39.0471C96.7879 38.879 96.8124 38.6977 96.8485 38.5067L97.4871 34.6354H99.0544L98.3911 38.639C98.3666 38.7826 98.3436 38.9508 98.3191 39.1206C98.2224 39.8292 98.3666 40.035 98.6204 40.0709C98.645 40.0709 98.6679 40.0823 98.6924 40.0823C98.7285 40.0823 98.7776 40.0709 98.8251 40.0578C99.4883 39.8178 100.333 37.8569 100.622 35.9579L100.802 34.7562L102.382 34.5391L101.454 40.6228H99.8617L100.271 38.3271H100.273Z" fill="white"/>
<path d="M102.647 40.6288L103.672 34.7492L105.228 34.5206L104.819 36.9257H104.855C105.506 35.1819 106.289 34.5566 107.074 34.5566C107.797 34.5566 108.22 34.9647 108.292 35.6995C108.317 35.8562 108.317 36.0244 108.303 36.204C108.292 36.3722 108.267 36.5649 108.243 36.7575L107.604 40.6288H106.024L106.687 36.6253C106.723 36.4685 106.748 36.3004 106.759 36.1436C106.867 35.435 106.712 35.2293 106.469 35.1933C106.445 35.1819 106.422 35.1819 106.397 35.1819C106.361 35.1819 106.312 35.1933 106.265 35.2064C105.59 35.4464 104.769 37.3943 104.455 39.2949L104.25 40.6288H102.647Z" fill="white"/>
<path d="M83.0545 38.2341H71.0178C70.7918 38.2341 70.6084 38.0512 70.6084 37.8259C70.6084 37.6006 70.7918 37.4177 71.0178 37.4177H83.0545C83.2805 37.4177 83.464 37.6006 83.464 37.8259C83.464 38.0512 83.2805 38.2341 83.0545 38.2341Z" fill="white"/>
<path d="M95.8676 16.0093C95.8676 23.8221 89.5151 30.1556 81.679 30.1556C73.8428 30.1556 67.4904 23.8221 67.4904 16.0093C67.4904 8.19644 73.8428 1.86292 81.679 1.86292C89.5151 1.86292 95.8676 8.19644 95.8676 16.0093ZM81.679 2.36744C76.6285 2.36744 72.5344 8.47401 72.5344 16.0076C72.5344 23.5412 76.6285 29.6478 81.679 29.6478C86.7295 29.6478 90.8236 23.5412 90.8236 16.0076C90.8236 8.47401 86.7295 2.36744 81.679 2.36744Z" fill="white"/>
<path d="M104.57 30.1862V16.0758C104.57 9.86801 107.247 6.39183 112.103 6.39183C113.41 6.39183 114.842 6.70206 116.149 7.26047V2.16948C115.154 1.9213 114.219 1.85925 113.285 1.85925C108.243 1.85925 104.34 5.58361 103.469 11.1089L99.9514 2.29357H99.5256V30.1846" fill="white"/>
</g>
<defs>
<clipPath id="clip0_31_6092">
<rect width="106.83" height="44.1868" fill="white" transform="translate(0.550781 0.361328)"/>
</clipPath>
</defs>
</svg>
