<svg width="358" height="73" viewBox="0 0 358 73" fill="none" xmlns="http://www.w3.org/2000/svg">
<path d="M263.776 10.7206L253.287 1.68552C250.364 -0.747019 246.237 -0.573267 243.83 2.38052L208.064 45.2974C205.657 48.2512 205.829 52.4212 208.58 54.8538L218.725 64.4101C233.169 77.0941 255.006 75.3565 267.387 60.5876C279.767 45.8186 277.876 23.4046 263.432 10.8944L263.776 10.7206ZM228.01 53.985L222.68 49.1199L249.848 16.4545L255.178 21.1458C264.12 28.9647 265.152 42.5173 257.586 51.5525C250.02 60.5876 236.78 61.6301 227.838 53.985H228.01Z" fill="url(#paint0_linear_186_833)"/>
<path d="M255.862 28.628C255.346 27.4117 254.142 26.543 252.938 26.543C252.595 26.543 252.079 26.543 251.735 26.7167C250.875 27.0642 250.359 27.5855 250.015 28.4542C249.671 29.323 249.671 30.1918 250.015 30.8868C251.563 34.8831 250.875 39.5744 248.124 42.8757C245.889 45.482 242.793 47.0458 239.354 47.0458C238.667 47.0458 237.807 47.0458 237.119 46.872C236.947 46.872 236.775 46.872 236.431 46.872C234.884 46.872 233.508 47.9145 233.336 49.4783C232.992 51.2158 234.196 52.9533 235.915 53.3008C237.119 53.4746 238.151 53.6483 239.354 53.6483C244.685 53.6483 249.671 51.2158 253.11 47.0458C257.409 41.8332 258.441 34.7093 256.034 28.4542L255.862 28.628Z" fill="url(#paint1_linear_186_833)"/>
<path d="M36.4535 14.3808C40.0644 14.3808 43.1595 11.2533 43.1595 7.60447C43.1595 3.95567 40.2364 0.828125 36.4535 0.828125H6.53411C2.92315 0.828125 0 3.95567 0 7.60447V64.4215C0 68.2441 2.92315 71.1979 6.53411 71.1979C10.1451 71.1979 13.2402 68.2441 13.2402 64.4215V43.05H36.6254C40.2364 43.05 43.3315 40.0962 43.3315 36.2736C43.3315 32.4511 40.4083 29.4973 36.6254 29.4973H13.2402V14.5546H36.6254L36.4535 14.3808Z" fill="url(#paint2_linear_186_833)"/>
<path d="M85.9799 1.15234C67.0654 1.15234 51.5898 16.9638 51.5898 36.2503C51.5898 55.5369 67.0654 71.5221 85.9799 71.5221C104.894 71.5221 120.37 55.7106 120.37 36.4241C120.37 17.1376 105.066 1.15234 85.9799 1.15234ZM85.9799 57.7956C74.4593 57.7956 65.002 48.2393 65.002 36.2503C65.002 24.2614 74.4593 14.8788 85.9799 14.8788C97.5006 14.8788 106.958 24.4352 106.958 36.2503C106.958 48.0655 97.5006 57.7956 85.9799 57.7956Z" fill="url(#paint3_linear_186_833)"/>
<path d="M163.691 1.15234C144.776 1.15234 129.301 16.9638 129.301 36.2503C129.301 55.5369 144.776 71.5221 163.691 71.5221C182.605 71.5221 198.081 55.7106 198.081 36.4241C198.081 17.1376 182.777 1.15234 163.691 1.15234ZM163.691 57.7956C152.17 57.7956 142.713 48.2393 142.713 36.2503C142.713 24.2614 152.17 14.8788 163.691 14.8788C175.212 14.8788 184.669 24.4352 184.669 36.2503C184.669 48.0655 175.384 57.7956 163.691 57.7956Z" fill="url(#paint4_linear_186_833)"/>
<path d="M323.609 1.15234C304.694 1.15234 289.219 16.9638 289.219 36.2503C289.219 55.5369 304.694 71.5221 323.609 71.5221C342.523 71.5221 357.999 55.7106 357.999 36.4241C357.999 17.1376 342.695 1.15234 323.609 1.15234ZM323.609 57.7956C312.088 57.7956 302.631 48.2393 302.631 36.2503C302.631 24.2614 312.088 14.8788 323.609 14.8788C335.13 14.8788 344.587 24.4352 344.587 36.2503C344.587 48.0655 335.301 57.7956 323.609 57.7956Z" fill="url(#paint5_linear_186_833)"/>
<defs>
<linearGradient id="paint0_linear_186_833" x1="239.823" y1="-67.5" x2="247.563" y2="83.6185" gradientUnits="userSpaceOnUse">
<stop stop-color="#515151"/>
<stop offset="0.185742" stop-color="#434343"/>
<stop offset="1" stop-color="#050505"/>
</linearGradient>
<linearGradient id="paint1_linear_186_833" x1="244.888" y1="1.44508" x2="247.969" y2="57.6124" gradientUnits="userSpaceOnUse">
<stop stop-color="#515151"/>
<stop offset="0.185742" stop-color="#434343"/>
<stop offset="1" stop-color="#050505"/>
</linearGradient>
<linearGradient id="paint2_linear_186_833" x1="20.9395" y1="-64.3299" x2="32.4169" y2="81.0217" gradientUnits="userSpaceOnUse">
<stop stop-color="#515151"/>
<stop offset="0.185742" stop-color="#434343"/>
<stop offset="1" stop-color="#050505"/>
</linearGradient>
<linearGradient id="paint3_linear_186_833" x1="84.8271" y1="-64.0056" x2="92.085" y2="81.8911" gradientUnits="userSpaceOnUse">
<stop stop-color="#515151"/>
<stop offset="0.185742" stop-color="#434343"/>
<stop offset="1" stop-color="#050505"/>
</linearGradient>
<linearGradient id="paint4_linear_186_833" x1="162.538" y1="-64.0056" x2="169.796" y2="81.8911" gradientUnits="userSpaceOnUse">
<stop stop-color="#515151"/>
<stop offset="0.185742" stop-color="#434343"/>
<stop offset="1" stop-color="#050505"/>
</linearGradient>
<linearGradient id="paint5_linear_186_833" x1="322.456" y1="-64.0056" x2="329.714" y2="81.8911" gradientUnits="userSpaceOnUse">
<stop stop-color="#515151"/>
<stop offset="0.185742" stop-color="#434343"/>
<stop offset="1" stop-color="#050505"/>
</linearGradient>
</defs>
</svg>
