<svg width="70" height="37" viewBox="0 0 70 37" fill="none" xmlns="http://www.w3.org/2000/svg">
<g clip-path="url(#clip0_31_4243)">
<path d="M34.9869 0C38.9764 0 42.8084 0.130374 46.4567 0.365046C50.0263 0.599718 53.2808 1.09514 56.2467 1.82523C59.0814 2.52925 61.5748 3.57223 63.6745 4.98027C65.6693 6.31008 67.2703 8.16138 68.3202 10.2995C69.4488 12.5941 70 15.4362 70 18.8781C70 22.3721 69.3438 25.5271 67.979 28.291C66.6667 31.0028 64.8819 33.1409 62.5984 34.7054C60.3937 36.2438 57.7428 37.0261 55.0394 37C53.2546 37 51.6535 36.7653 50.21 36.2699C48.7926 35.7745 47.4016 35.1487 46.1155 34.3665C44.8819 33.6103 43.6483 32.802 42.4672 31.9415C41.3386 31.1332 40.1837 30.4031 38.9764 29.7512C37.769 29.0733 36.4042 28.7343 35.0131 28.7082C33.7008 28.7082 32.3885 29.0472 31.0499 29.7512C29.9475 30.351 28.7664 31.081 27.5591 31.9415C26.4304 32.7498 25.2231 33.5581 23.8845 34.3665C22.5984 35.1487 21.2336 35.8006 19.79 36.2699C18.3465 36.7653 16.7454 37 14.9606 37C12.2572 37.0521 9.6063 36.2438 7.37533 34.7054C5.09186 33.1409 3.30709 30.9767 1.99475 28.291C0.656168 25.5271 0 22.3721 0 18.8781C0 15.4623 0.524934 12.6202 1.67979 10.3256C2.72966 8.18746 4.33071 6.33615 6.32546 5.00634C8.4252 3.59831 10.8924 2.55532 13.7533 1.8513C16.9816 1.06906 20.2362 0.573643 23.5433 0.391121C27.1916 0.130374 30.9974 0.0260747 34.9869 0.0260747" fill="#ABEF26"/>
<path d="M47.9526 13.5541L46.3515 12.1983C45.9053 11.8332 45.2754 11.8593 44.9079 12.3026L39.4486 18.743C39.0812 19.1863 39.1074 19.8121 39.5274 20.1771L41.0759 21.6112C43.2806 23.5147 46.614 23.2539 48.5037 21.0376C50.3935 18.8212 50.1048 15.4576 47.9001 13.5802L47.9526 13.5541ZM42.4932 20.0467L41.6796 19.3166L45.8266 14.4146L46.6402 15.1186C48.0051 16.292 48.1625 18.3258 47.0077 19.6817C45.8528 21.0376 43.8318 21.194 42.467 20.0467H42.4932Z" fill="black"/>
<path d="M46.7442 16.2426C46.6654 16.0601 46.4817 15.9297 46.298 15.9297C46.2455 15.9297 46.1667 15.9297 46.1143 15.9558C45.983 16.0079 45.9043 16.0861 45.8518 16.2165C45.7993 16.3469 45.7993 16.4773 45.8518 16.5816C46.088 17.1813 45.983 17.8853 45.5631 18.3807C45.2219 18.7718 44.7494 19.0065 44.2245 19.0065C44.1195 19.0065 43.9883 19.0065 43.8833 18.9804C43.857 18.9804 43.8308 18.9804 43.7783 18.9804C43.5421 18.9804 43.3321 19.1369 43.3059 19.3715C43.2534 19.6323 43.4371 19.893 43.6996 19.9452C43.8833 19.9713 44.0408 19.9973 44.2245 19.9973C45.0381 19.9973 45.7993 19.6323 46.3242 19.0065C46.9804 18.2243 47.1379 17.1552 46.7704 16.2165L46.7442 16.2426Z" fill="black"/>
<path d="M13.2557 14.1041C13.8069 14.1041 14.2793 13.6348 14.2793 13.0872C14.2793 12.5397 13.8331 12.0703 13.2557 12.0703H8.68878C8.1376 12.0703 7.69141 12.5397 7.69141 13.0872V21.6137C7.69141 22.1873 8.1376 22.6306 8.68878 22.6306C9.23996 22.6306 9.7124 22.1873 9.7124 21.6137V18.4065H13.282C13.8331 18.4065 14.3056 17.9632 14.3056 17.3896C14.3056 16.8159 13.8594 16.3726 13.282 16.3726H9.7124V14.1302H13.282L13.2557 14.1041Z" fill="black"/>
<path d="M20.8158 12.1172C17.9286 12.1172 15.5664 14.49 15.5664 17.3843C15.5664 20.2786 17.9286 22.6774 20.8158 22.6774C23.7029 22.6774 26.0651 20.3046 26.0651 17.4104C26.0651 14.5161 23.7291 12.1172 20.8158 12.1172ZM20.8158 20.6175C19.0572 20.6175 17.6137 19.1834 17.6137 17.3843C17.6137 15.5851 19.0572 14.1771 20.8158 14.1771C22.5743 14.1771 24.0178 15.6112 24.0178 17.3843C24.0178 19.1574 22.5743 20.6175 20.8158 20.6175Z" fill="black"/>
<path d="M32.679 12.1172C29.7919 12.1172 27.4297 14.49 27.4297 17.3843C27.4297 20.2786 29.7919 22.6774 32.679 22.6774C35.5662 22.6774 37.9284 20.3046 37.9284 17.4104C37.9284 14.5161 35.5924 12.1172 32.679 12.1172ZM32.679 20.6175C30.9205 20.6175 29.4769 19.1834 29.4769 17.3843C29.4769 15.5851 30.9205 14.1771 32.679 14.1771C34.4376 14.1771 35.8811 15.6112 35.8811 17.3843C35.8811 19.1574 34.4638 20.6175 32.679 20.6175Z" fill="black"/>
<path d="M57.0892 12.1172C54.202 12.1172 51.8398 14.49 51.8398 17.3843C51.8398 20.2786 54.202 22.6774 57.0892 22.6774C59.9763 22.6774 62.3385 20.3046 62.3385 17.4104C62.3385 14.5161 60.0026 12.1172 57.0892 12.1172ZM57.0892 20.6175C55.3307 20.6175 53.8871 19.1834 53.8871 17.3843C53.8871 15.5851 55.3307 14.1771 57.0892 14.1771C58.8477 14.1771 60.2913 15.6112 60.2913 17.3843C60.2913 19.1574 58.874 20.6175 57.0892 20.6175Z" fill="black"/>
</g>
<defs>
<clipPath id="clip0_31_4243">
<rect width="70" height="37" fill="white"/>
</clipPath>
</defs>
</svg>
