<svg width="52" height="65" viewBox="0 0 52 65" fill="none" xmlns="http://www.w3.org/2000/svg">
<path d="M31.8077 15.894C30.4379 15.8591 29.7181 16.6839 29.6311 17.476L33.7603 17.5785C33.7777 16.7712 33.1254 15.9114 31.8077 15.894ZM31.8077 15.894C30.4379 15.8591 29.7181 16.6839 29.6311 17.476L33.7603 17.5785C33.7777 16.7712 33.1254 15.9114 31.8077 15.894ZM31.8077 15.894C30.4379 15.8591 29.7181 16.6839 29.6311 17.476L33.7603 17.5785C33.7777 16.7712 33.1254 15.9114 31.8077 15.894ZM31.8077 15.894C30.4379 15.8591 29.7181 16.6839 29.6311 17.476L33.7603 17.5785C33.7777 16.7712 33.1254 15.9114 31.8077 15.894ZM31.8077 15.894C30.4379 15.8591 29.7181 16.6839 29.6311 17.476L33.7603 17.5785C33.7777 16.7712 33.1254 15.9114 31.8077 15.894ZM31.8077 15.894C30.4379 15.8591 29.7181 16.6839 29.6311 17.476L33.7603 17.5785C33.7777 16.7712 33.1254 15.9114 31.8077 15.894ZM31.8077 15.894C30.4379 15.8591 29.7181 16.6839 29.6311 17.476L33.7603 17.5785C33.7777 16.7712 33.1254 15.9114 31.8077 15.894ZM31.8077 15.894C30.4379 15.8591 29.7181 16.6839 29.6311 17.476L33.7603 17.5785C33.7777 16.7712 33.1254 15.9114 31.8077 15.894ZM31.8077 15.894C30.4379 15.8591 29.7181 16.6839 29.6311 17.476L33.7603 17.5785C33.7777 16.7712 33.1254 15.9114 31.8077 15.894ZM31.8077 15.894C30.4379 15.8591 29.7181 16.6839 29.6311 17.476L33.7603 17.5785C33.7777 16.7712 33.1254 15.9114 31.8077 15.894ZM31.8077 15.894C30.4379 15.8591 29.7181 16.6839 29.6311 17.476L33.7603 17.5785C33.7777 16.7712 33.1254 15.9114 31.8077 15.894ZM31.8077 15.894C30.4379 15.8591 29.7181 16.6839 29.6311 17.476L33.7603 17.5785C33.7777 16.7712 33.1254 15.9114 31.8077 15.894ZM19.1309 10.1858L19.0114 15.067C19.6615 14.1396 20.8444 13.605 22.1642 13.6399C24.5452 13.6923 25.4367 14.8946 25.3845 16.9414L25.2475 22.4074L22.797 22.355L22.9166 17.4389C22.934 16.4591 22.523 15.7893 21.2901 15.7543C20.092 15.7194 19.2679 16.374 18.9439 17.3363L18.8244 22.235L16.3586 22.1826L16.6499 10.1836H3.04688V26.6689H51.5622V10.1858H19.1309ZM11.988 22.3397C9.96583 22.2874 8.93951 21.2051 8.97213 19.538L9.07432 15.2394L6.96733 14.947L7.00212 13.5374L9.10912 13.5898L9.1613 11.4055L11.6271 11.4754L11.5749 13.6596L14.469 13.7294L14.4342 15.379L11.5401 15.3092L11.4379 19.2631C11.4205 19.9504 11.7119 20.5177 12.5164 20.5352C13.3035 20.5526 13.9037 20.4501 14.5386 20.2428L14.967 22.0648C14.1798 22.2546 13.2035 22.3747 11.9859 22.3397H11.988ZM36.1435 18.9707L29.6333 18.8157C29.6681 19.898 30.5248 20.6727 31.9969 20.7076C32.9558 20.725 33.9321 20.5526 34.6518 20.2101L35.5934 22.1346C34.6171 22.6321 33.3842 22.8743 31.8751 22.8394C28.844 22.7696 27.0784 21.0698 27.148 18.2484C27.2176 15.5143 28.8614 13.8123 31.8925 13.8996C34.891 13.9694 36.2087 15.7391 36.1413 18.4732V18.9707H36.1435ZM31.8077 15.894C30.4379 15.8591 29.7181 16.6839 29.6311 17.476L33.7603 17.5785C33.7777 16.7712 33.1254 15.9114 31.8077 15.894ZM31.8077 15.894C30.4379 15.8591 29.7181 16.6839 29.6311 17.476L33.7603 17.5785C33.7777 16.7712 33.1254 15.9114 31.8077 15.894ZM31.8077 15.894C30.4379 15.8591 29.7181 16.6839 29.6311 17.476L33.7603 17.5785C33.7777 16.7712 33.1254 15.9114 31.8077 15.894ZM31.8077 15.894C30.4379 15.8591 29.7181 16.6839 29.6311 17.476L33.7603 17.5785C33.7777 16.7712 33.1254 15.9114 31.8077 15.894ZM31.8077 15.894C30.4379 15.8591 29.7181 16.6839 29.6311 17.476L33.7603 17.5785C33.7777 16.7712 33.1254 15.9114 31.8077 15.894ZM31.8077 15.894C30.4379 15.8591 29.7181 16.6839 29.6311 17.476L33.7603 17.5785C33.7777 16.7712 33.1254 15.9114 31.8077 15.894ZM31.8077 15.894C30.4379 15.8591 29.7181 16.6839 29.6311 17.476L33.7603 17.5785C33.7777 16.7712 33.1254 15.9114 31.8077 15.894ZM31.8077 15.894C30.4379 15.8591 29.7181 16.6839 29.6311 17.476L33.7603 17.5785C33.7777 16.7712 33.1254 15.9114 31.8077 15.894ZM31.8077 15.894C30.4379 15.8591 29.7181 16.6839 29.6311 17.476L33.7603 17.5785C33.7777 16.7712 33.1254 15.9114 31.8077 15.894ZM31.8077 15.894C30.4379 15.8591 29.7181 16.6839 29.6311 17.476L33.7603 17.5785C33.7777 16.7712 33.1254 15.9114 31.8077 15.894ZM31.8077 15.894C30.4379 15.8591 29.7181 16.6839 29.6311 17.476L33.7603 17.5785C33.7777 16.7712 33.1254 15.9114 31.8077 15.894Z" fill="white"/>
<path d="M0.45907 28.6484L0.406885 34.9414H2.3595V32.6896H4.91225V34.9414H7.92815V36.6609H4.91225V40.7697C4.91225 41.4745 5.22102 42.0593 6.06034 42.0593C6.89966 42.0593 7.49979 41.9392 8.14994 41.6992L8.6457 43.591C7.82378 43.8136 6.81268 43.9685 5.545 43.9685C3.438 43.9685 2.3421 42.8688 2.3421 41.1319V36.6783L0.389489 36.4558L0.304688 45.1534L48.7852 45.9607L48.9396 29.4754L0.45907 28.6484ZM12.6379 43.674H10.0852V34.9414H12.6379V43.674ZM12.6379 33.4446H10.0852V30.8828H12.6379V33.4446ZM29.8048 33.0169C29.1699 32.7769 28.5198 32.6394 27.6978 32.6394C26.8237 32.6394 26.4302 33.2765 26.4302 33.9464V34.9436H29.4613V36.6631H26.4454V43.6761H23.91V36.6631H19.1981V43.6761H16.6627V36.6631L14.4709 36.423V34.9436H16.6627V33.6017C16.6627 31.8648 17.8282 30.7476 19.9526 30.7476C21.3747 30.7476 22.2662 30.885 23.0185 31.1425L22.5554 33.0343C21.9204 32.7943 21.2703 32.6568 20.4484 32.6568C19.5743 32.6568 19.1807 33.294 19.1807 33.9639V34.9611H23.8926V33.6191C23.8926 31.8822 25.0581 30.765 27.1825 30.765C28.5872 30.765 29.4787 30.9025 30.2484 31.16L29.8027 33.0169H29.8048ZM33.6253 43.674H31.1073V34.9414H33.6253V43.674ZM33.6253 33.4446H31.1073V30.8828H33.6253V33.4446ZM45.8041 43.674H43.2687V38.5854C43.2687 37.5708 42.8056 36.8835 41.5379 36.8835C40.2702 36.8835 39.4657 37.5708 39.1396 38.5854V43.674H36.5868V34.9414H38.5046L38.7438 36.3685C39.4114 35.3713 40.766 34.6665 42.1881 34.6665C44.706 34.6665 45.8019 35.8863 45.8019 38.0007V43.674H45.8041Z" fill="white"/>
<path d="M31.4456 55.6219C31.4978 56.9791 30.7259 58.0811 29.1843 58.1312C27.66 58.1836 26.8033 57.1166 26.7511 55.7768C26.7163 54.4349 27.5056 53.3177 29.0299 53.2675C30.5715 53.2151 31.4109 54.2821 31.4456 55.6219Z" fill="white"/>
<path d="M15.7036 47.918L15.8579 52.9388C16.4755 52.0115 17.3648 51.4092 18.7521 51.3743C21.4244 51.2892 22.9139 53.2836 22.9835 55.913C23.0683 58.5096 21.768 60.6065 18.9739 60.6916C17.4496 60.744 16.3015 60.1243 15.6166 59.1097L15.4796 60.5192L13.664 60.5716L13.2704 47.918H2.64844V64.4033H51.1464V47.918H15.7036ZM29.2697 60.3469C26.169 60.4494 24.4381 58.6972 24.3533 55.8431C24.2685 52.989 25.895 51.1321 28.9957 51.047C32.0964 50.9445 33.8098 52.6966 33.8946 55.5507C33.9642 58.4049 32.353 60.2618 29.2697 60.3469ZM42.29 59.677L39.6525 56.5305H39.4807L37.0301 59.8319L35.2493 59.8843L35.1971 57.9597L37.5607 55.3456L35.1971 53.0414L35.1123 51.1168L36.9105 51.0645L39.3763 54.0735H39.5481L41.8269 50.927L43.6251 50.8746L43.6947 52.8166L41.4507 55.2584L43.9687 57.7175L44.0382 59.6595L42.29 59.677ZM46.2996 59.557L46.23 57.0978L48.5436 57.028L48.6132 59.4697L46.2996 59.5548V59.557Z" fill="white"/>
<path d="M39.7344 8.2094H37.5078V4.94289C37.5078 3.91078 36.6859 3.08597 35.6574 3.08597H18.1317C17.1032 3.08597 16.2813 3.91078 16.2813 4.94289V8.2094H14.0547V4.63304C14.0547 2.5361 15.7507 0.851562 17.8229 0.851562H35.964C38.0536 0.851562 39.7322 2.55355 39.7322 4.63304V8.2094H39.7344Z" fill="white"/>
<path d="M20.5723 55.9654C20.6071 57.3227 19.8178 58.4246 18.2762 58.4748H17.95C17.7608 58.4573 17.5738 58.4224 17.4021 58.3722C17.3499 58.3548 17.2825 58.3373 17.2303 58.3199C17.1781 58.3024 17.1281 58.2675 17.0585 58.25C16.2714 57.8551 15.7734 57.0303 15.7734 56.0658C15.7734 54.7239 16.7671 53.6416 18.0522 53.6416H18.1218C19.6634 53.5565 20.5202 54.6038 20.5723 55.9633V55.9654Z" fill="white"/>
<path d="M17.9308 58.4619C17.7416 58.4619 17.5546 58.427 17.3828 58.3594C17.5546 58.4117 17.7416 58.4445 17.9308 58.4619Z" fill="white"/>
</svg>
