<svg width="114" height="48" viewBox="0 0 114 48" fill="none" xmlns="http://www.w3.org/2000/svg">
<path d="M62.7272 35.0293C63.5932 35.0293 64.293 34.3693 64.293 33.5635C64.293 32.7576 63.5932 32.0977 62.7272 32.0977C61.8613 32.0977 61.1615 32.7576 61.1615 33.5635C61.1615 34.3693 61.8613 35.0293 62.7272 35.0293Z" fill="white"/>
<path d="M22.9404 33.1047C23.1483 33.1047 23.5293 33.1741 23.7302 33.3687C23.9381 33.5771 23.9796 33.7994 23.9865 34.0078C23.9865 36.2794 24.1944 43.7821 23.8272 45.0882C23.6748 45.63 23.363 46.1511 22.8573 46.4498C21.9844 46.9638 20.8413 46.8457 19.8228 46.8596L19.8228 47.0403C20.4464 47.0403 21.153 47.0889 21.8389 47.0403C22.7534 46.9777 23.7094 46.6234 24.3122 45.9635C24.6101 45.637 24.8318 45.2479 24.9495 44.8381C25.0812 44.4004 25.0881 43.9141 25.1089 43.4626C25.1227 43.1847 25.1227 42.8999 25.1297 42.622C25.1297 42.4344 25.1297 42.2469 25.1297 42.0593L25.1297 41.5591C25.1297 41.1979 25.1227 40.8366 25.1297 40.4754C25.1297 40.392 25.1297 40.3295 25.1297 40.26L25.1297 38.4399C25.1158 37.0436 25.095 35.6403 25.1297 34.237L25.1297 34.2162C25.1297 34.1467 25.1297 34.0703 25.1297 34.0008C25.1297 33.7855 25.1712 33.5701 25.386 33.3617C25.5869 33.1602 25.9679 33.0977 26.1758 33.0977L26.1758 32.9102L22.9335 32.9102L22.9335 33.0977L22.9404 33.1047Z" fill="white"/>
<path d="M96.0517 32.5872C94.9778 32.5872 93.904 32.5872 92.8232 32.5872C93.6477 32.6289 93.8763 33.6501 93.8763 34.4212C93.8763 36.4498 93.8624 38.4783 93.8624 40.5068C93.8624 41.1945 93.807 41.9865 93.2181 42.3963C92.8163 42.6742 92.269 42.6881 91.7702 42.6881C76.7989 42.709 61.8345 42.7367 46.8632 42.7576C45.3667 42.7576 43.6832 42.6881 42.6787 41.6461C41.5494 40.479 41.8266 38.6867 41.4524 37.1514C40.8843 34.845 38.5496 33.0319 36.0209 32.9276C33.8802 32.8443 31.7741 33.9905 30.7003 35.7064C29.6472 37.3945 29.8204 39.5481 30.8735 41.2015C31.4346 42.0768 32.2383 42.8132 33.222 43.2647C35.7022 44.411 39.0277 43.6121 40.6072 41.4863C41.4109 43.3481 40.2678 45.7239 38.2517 46.4047C40.4895 46.1199 42.1799 43.8274 41.6672 41.7711C42.4847 43.3342 44.7363 43.5495 46.5999 43.5495C61.4812 43.5495 76.3555 43.5495 91.2367 43.5495C92.1166 43.5495 93.0657 43.5287 93.7793 43.0424C94.8531 42.306 94.9363 40.868 94.9224 39.6245C94.9016 38.0059 94.8808 36.3872 94.8601 34.7686C94.8462 33.8585 95.0887 32.6637 96.0586 32.5664L96.0517 32.5872ZM40.0599 40.2081C39.9352 40.7985 39.7135 41.3821 39.3602 41.9031C39.0069 42.4311 38.4942 42.8896 37.8707 43.2091C37.2402 43.5287 36.499 43.6885 35.7577 43.6954C35.0164 43.6954 34.2751 43.5287 33.6446 43.2091C33.0142 42.8896 32.5085 42.4311 32.1551 41.9031C31.8018 41.3751 31.5801 40.7985 31.4485 40.2081C31.3168 39.6176 31.2683 39.0132 31.2614 38.4018C31.2683 37.7905 31.3168 37.1861 31.4485 36.5956C31.5732 36.0051 31.7949 35.4216 32.1551 34.9006C32.5085 34.3726 33.0211 33.9141 33.6446 33.5946C34.2751 33.275 35.0164 33.1152 35.7577 33.1083C36.499 33.1083 37.2402 33.275 37.8707 33.5946C38.5011 33.9141 39.0069 34.3726 39.3602 34.9006C39.7135 35.4285 39.9352 36.0051 40.0599 36.5956C40.1916 37.1861 40.2401 37.7905 40.247 38.4018C40.2401 39.0132 40.1916 39.6176 40.0599 40.2081Z" fill="white"/>
<path d="M10.3102 5.40625L16.6562 5.40625L16.6355 5.57298C15.3746 5.91338 14.7441 6.61502 14.6264 9.69947L14.3839 22.6486L14.1206 22.6486L2.80726 8.07388L3.04975 17.5982L3.04975 17.6468L3.07053 18.1817C3.1883 21.1967 4.13742 21.8011 6.41672 22.2387L6.41672 22.4054L0.0707218 22.4054L0.0915043 22.2387C1.37318 21.8983 2.00362 21.1967 2.12833 18.0358L2.32231 7.46949L0.867433 5.57298L1.03371 5.40625L3.21601 5.40625L13.8781 18.668L13.6634 9.58137C13.5456 6.61502 12.5965 6.01064 10.3172 5.57298L10.3172 5.40625L10.3102 5.40625Z" fill="white"/>
<path d="M27.4431 5.64844L33.7891 5.64844L33.7614 5.81516C32.4312 6.17641 31.7522 6.93362 31.7522 10.4557L31.7522 16.5552C31.7522 20.7789 30.0826 22.8977 25.6972 22.8977C21.6513 22.8977 19.3027 21.029 19.3027 16.4579L19.3027 8.1285C19.3027 6.9892 18.9425 6.06525 17.3144 5.82211L17.3144 5.65538L23.2031 5.65538L23.2031 5.82211C21.582 6.06525 21.2148 6.9892 21.2148 8.1285L21.2148 16.3398C21.2148 19.9592 23.3486 21.4667 26.2999 21.4667C29.5007 21.4667 31.1426 20.4246 31.1426 16.708C31.1426 14.1307 30.9971 12.3384 30.8308 10.1709C30.5676 6.91278 29.7916 6.25977 27.4361 5.82211L27.4361 5.65538L27.4431 5.64844Z" fill="white"/>
<path d="M48.6018 20.7668C49.35 21.8575 49.641 22.2465 49.9805 22.4897L49.9805 22.6564L44.9923 22.6564L44.9923 22.4897C46.0108 22.2743 46.5165 21.8367 45.9138 20.4959L41.8678 12.8404L38.5493 12.8404L38.5493 20.1763C38.5493 21.3156 39.3946 22.2187 41.7501 22.4827L41.7501 22.6495L34.6489 22.6495L34.6489 22.4827C36.27 22.2396 36.6372 21.3156 36.6372 20.1763L36.6372 8.13032C36.6372 6.81735 36.083 5.96982 35.1339 5.82393L35.1339 5.65721L38.2584 5.65721C39.2491 5.65721 40.7039 5.41406 43.1495 5.41406C46.7105 5.41406 48.8651 6.50473 48.8651 9.08205C48.8651 11.2217 46.8767 12.7014 43.0733 12.8473L48.5949 20.7668L48.6018 20.7668ZM38.5493 11.6802C39.54 12.1179 41.0434 12.6042 42.429 12.6042C45.3595 12.6042 46.6412 11.4649 46.6412 9.71423C46.6412 7.57457 44.3134 6.09486 41.6531 6.09486C40.1774 6.09486 38.5493 6.62978 38.5493 8.74165L38.5493 11.6802Z" fill="white"/>
<path d="M28.4141 1.8563L28.4141 0.765625L21.6316 0.765625L21.6316 1.8563L28.4141 1.8563Z" fill="white"/>
<path d="M58.3281 13.5993C58.3281 8.13902 62.2077 5.36719 66.7802 5.36719C70.3273 5.36719 73.05 7.12477 73.8536 7.81252L73.3825 12.3002L73.1193 12.3002C72.856 8.52805 68.8378 6.65237 65.3323 6.65237C61.8267 6.65237 59.201 8.95181 59.201 12.3697C59.201 17.9203 64.6464 20.8172 68.3598 20.8172C72.0732 20.8172 74.0407 18.5178 74.4425 15.2874L74.7266 15.2874C74.5603 18.7748 72.475 22.4567 67.3691 22.4567C62.2632 22.4567 58.3281 19.0874 58.3281 13.6063L58.3281 13.5993Z" fill="white"/>
<path d="M87.4393 18.6567L82.562 5.65201L80.6707 5.36719L80.5044 5.48529L81.1903 7.29149L77.1167 17.4966C75.6479 20.9353 75.1491 21.6995 74.2762 22.0538L74.2554 22.2205L80.4559 22.2205L80.4559 22.0538C80.4559 22.0538 79.5068 21.8384 79.4098 21.8176C79.1327 21.7412 78.8556 21.6439 78.5923 21.5189C78.1697 21.3105 77.8302 20.9839 77.6847 20.5254C77.4977 19.935 77.6085 19.2611 77.7402 18.6706C78.1766 16.6977 78.9803 14.822 79.6454 12.9185C79.6592 12.8907 79.6661 12.856 79.68 12.8282C79.8948 12.203 80.1165 11.5847 80.3312 10.9595C80.5321 10.3968 80.7261 9.82713 80.927 9.26443L81.3219 8.13208C81.3358 8.09039 81.4258 7.93061 81.4051 7.88893C81.5713 8.33354 81.7376 8.77814 81.9039 9.22969C82.2641 10.1884 82.6175 11.1471 82.9777 12.0988C83.338 12.9185 83.6151 13.8008 83.9338 14.6483C84.2525 15.4958 84.5711 16.3434 84.8898 17.1909C85.0977 17.7536 85.3055 18.3094 85.5133 18.8721C85.5133 18.879 85.5203 18.8929 85.5272 18.8999C86.2338 21.0326 85.8597 21.769 83.9199 22.0538L83.9199 22.2205L90.0234 22.2205L90.0234 22.0538C89.0327 21.6509 88.3677 20.9631 87.4462 18.6567L87.4393 18.6567Z" fill="white"/>
<path d="M100.812 5.60937L90.7315 5.60937L90.7315 5.7761C91.362 5.87336 91.8123 6.29018 92.0409 6.95014C92.0686 7.02655 92.0894 7.10297 92.1102 7.18633C92.1102 7.19328 92.1102 7.20717 92.1102 7.21412C92.124 7.28359 92.1379 7.35306 92.1517 7.42253C92.1517 7.44337 92.1517 7.47116 92.1587 7.492C92.1656 7.55452 92.1725 7.61704 92.1795 7.68651C92.1795 7.7143 92.1795 7.73514 92.1795 7.76293C92.1795 7.85324 92.1864 7.94355 92.1864 8.03386L92.1864 19.802C92.1864 20.9205 91.8331 21.8166 90.2466 22.0598L90.2466 22.2265L97.1814 22.2265L97.1814 22.0598C94.8883 21.7958 94.0569 20.9205 94.0569 19.802L94.0569 14.168L94.3341 14.168C97.611 14.1541 98.3107 14.7863 98.6571 16.0298L98.8164 16.0506L98.7887 10.1179L98.6294 10.1179C98.2345 12.3201 97.6248 13.0426 94.6042 13.3066C94.4241 13.3205 94.244 13.3344 94.0639 13.3483L94.0639 12.4452L94.0708 11.9936L94.0639 6.95014L94.0639 6.06093C97.4239 6.06093 99.8833 6.22765 100.784 9.64556L101.02 9.64556L100.805 5.60937L100.812 5.60937Z" fill="white"/>
<path d="M113.096 17.4748C112.265 21.4415 110.658 21.768 108.905 21.768C106.182 21.768 105.594 20.5801 105.594 19.3713L105.594 14.2097C108.642 14.2305 109.314 14.8627 109.653 16.0715L109.813 16.0923L109.785 10.1596L109.626 10.1596C109.231 12.3618 108.621 13.0843 105.6 13.3483L105.6 6.06093C108.96 6.06093 111.42 6.22765 112.321 9.64556L112.556 9.64556L112.341 5.60937L102.261 5.60937L102.261 5.7761C103.183 5.92199 103.73 6.74868 103.73 8.03386L103.73 19.802C103.73 20.9205 103.377 21.8166 101.79 22.0598L101.79 22.2265L113.117 22.2265L113.332 17.4817L113.096 17.4817L113.096 17.4748Z" fill="white"/>
</svg>
