<svg width="144" height="43" viewBox="0 0 144 43" fill="none" xmlns="http://www.w3.org/2000/svg">
<g clip-path="url(#clip0_512_944)">
<path opacity="0.44" fill-rule="evenodd" clip-rule="evenodd" d="M93.2904 19.4765V21.3833C93.2904 22.2025 93.4744 22.9511 94.0265 23.5726C94.4937 24.1093 95.0599 24.3353 95.7677 24.3353C96.6454 24.3353 97.3107 24.0528 97.8203 23.3325C98.5282 22.3438 98.6839 20.9031 98.6839 19.7307C98.6839 18.7702 98.5423 17.6403 97.9336 16.8493C97.4664 16.2278 96.8294 16.0301 96.065 16.0301C95.2581 16.0301 94.6352 16.3126 94.1114 16.9058C93.4744 17.6262 93.2762 18.5301 93.2762 19.4623M52.4924 22.0754L50.4822 22.3296C50.0009 22.3861 49.194 22.5556 48.8968 23.0076C48.7693 23.1912 48.741 23.4313 48.741 23.6573C48.741 23.9398 48.8118 24.1658 49.0242 24.3636C49.2931 24.6178 49.6895 24.6743 50.0576 24.6743C50.7512 24.6743 51.3175 24.4766 51.7988 23.954C52.2801 23.4172 52.4783 22.7816 52.4924 22.0895V22.0754ZM70.7255 10.6769C72.0703 9.67403 73.6983 9.16554 75.5811 9.16554C81.0595 9.16554 83.0272 13.0922 83.0272 18.0923V30.7479H74.8025V19.1375C74.8025 18.3183 74.7034 16.8352 73.9531 16.2984C73.6558 16.0866 73.2736 16.0301 72.9197 16.0301C72.2827 16.0301 71.8014 16.2561 71.3908 16.7363C70.8812 17.3437 70.7113 18.0923 70.7113 18.8691V30.7479H62.4725V9.61753H70.7113V10.6769H70.7255ZM18.9141 24.4059C18.9141 24.4059 18.9141 24.3636 18.9141 24.3494C18.7159 24.1799 18.4611 24.0387 18.2204 23.9398C17.824 23.7703 17.3994 23.615 16.9747 23.502C16.4509 23.3466 15.9413 23.1771 15.4458 22.9794C14.7238 22.6969 13.9877 22.3861 13.3082 22.0048C12.6571 21.6375 12.0625 21.1855 11.567 20.6347C11.0716 20.0838 10.7035 19.4482 10.4487 18.7561C10.1797 17.9934 10.0665 17.1742 10.0665 16.3549C10.0665 15.1826 10.3213 14.0385 10.93 13.0215C11.4821 12.1035 12.2465 11.3407 13.1525 10.7616C14.0727 10.1825 15.0919 9.78703 16.1536 9.54691C17.2436 9.29267 18.362 9.17967 19.4945 9.17967C20.4005 9.17967 21.3064 9.25029 22.1983 9.39154C23.1043 9.53278 24.0103 9.7164 24.888 9.98477L25.7656 10.239V17.7533L23.9112 16.6657C23.2742 16.2984 22.5947 16.016 21.8727 15.8323C21.1649 15.6487 20.4429 15.5498 19.721 15.5498C19.452 15.5498 19.1689 15.564 18.8999 15.6205C18.7159 15.6487 18.5177 15.7052 18.3478 15.8041C18.3053 15.8182 18.2487 15.8606 18.2204 15.8888V15.9171C18.362 16.0725 18.546 16.1854 18.7159 16.2702C19.0415 16.4256 19.3812 16.5668 19.721 16.6798C20.1598 16.8211 20.5986 16.9623 21.0375 17.1177C21.8019 17.386 22.5522 17.6968 23.2883 18.064C23.982 18.4171 24.619 18.855 25.1852 19.3917C25.7515 19.9426 26.1903 20.5782 26.4876 21.2985C26.8132 22.0895 26.9406 22.9511 26.9406 23.8127C26.9406 25.0415 26.6858 26.2421 26.0346 27.3015C25.4542 28.2478 24.6756 29.0247 23.713 29.6179C22.7504 30.2111 21.6745 30.6066 20.5562 30.8467C19.4095 31.101 18.2346 31.214 17.0596 31.214C14.9645 31.214 12.8977 30.9032 10.93 30.197L10.1089 29.9004V22.2025L11.9776 23.3183C12.7845 23.7986 13.6338 24.2082 14.5398 24.4766C15.2901 24.7026 16.0828 24.8438 16.8614 24.8438C17.4418 24.8438 18.2204 24.8014 18.7583 24.5472C18.8008 24.5331 18.9141 24.4766 18.9424 24.4342L18.9141 24.4059ZM8.3819 30.7479H0.015625V2.14564H8.3819V30.7479ZM41.0118 23.2477C41.4648 19.2787 44.4659 17.3578 48.4721 16.8352L52.2942 16.3267C51.9969 15.7193 51.3599 15.5498 50.3831 15.5498C48.3164 15.5498 46.4336 16.1996 44.7065 17.3295L42.7955 18.5866V11.2136L43.4608 10.8746C44.5508 10.3096 45.8532 9.9424 47.0565 9.67403C48.3871 9.36329 49.7744 9.16554 51.1476 9.16554C57.1498 9.16554 60.3774 12.3577 60.3774 18.3606V30.7479H52.4499V29.9004C51.2184 30.762 49.732 31.1999 48.0332 31.1999C46.108 31.1999 44.2819 30.6772 42.8804 29.3072C42.3 28.7281 41.8612 28.0783 41.5497 27.3862V30.0416L40.8985 30.3806C39.6103 31.0586 37.8974 31.1999 36.4677 31.1999C31.6121 31.1999 29.1348 28.4314 29.1348 23.6432V16.3126H26.1054V9.60341H29.1348V5.87452L37.3595 3.52985V9.60341H41.5639V16.3126H37.3595V22.6404C37.3595 23.05 37.402 23.8692 37.77 24.1517C37.9541 24.2929 38.2372 24.3212 38.4495 24.3212C38.9025 24.3212 39.3414 24.1658 39.7377 23.9398L41.0259 23.2336L41.0118 23.2477ZM118.403 21.9341C116.45 24.1658 116.634 26.1998 118.8 28.5586C119.493 27.0614 120.145 25.1545 119.592 23.615C119.352 22.9511 118.913 22.4003 118.403 21.9341ZM130.847 22.1884V0.648438H139.043V23.1912C139.043 23.4737 139.071 23.9257 139.284 24.1517C139.439 24.3212 139.666 24.3636 139.892 24.3636C140.119 24.3636 140.374 24.3353 140.6 24.2929C140.912 24.2364 141.223 24.1799 141.534 24.1234L143.007 23.841V30.3383L142.087 30.5784C141.322 30.7761 140.544 30.9315 139.751 31.0445C138.887 31.1716 138.024 31.2281 137.146 31.2281C136.268 31.2281 135.405 31.0869 134.584 30.762C133.805 30.4371 133.112 29.971 132.531 29.3495C131.951 28.7281 131.526 27.9936 131.243 27.1885C131.073 26.6941 130.946 26.1998 130.889 25.6913C130.762 26.454 130.521 27.1885 130.139 27.8665C128.044 31.5671 123.047 31.4682 119.408 30.875L118.899 30.7902L118.318 30.8891C114.737 31.4682 109.754 31.6801 107.248 28.4738C106.512 27.5275 106.144 26.5246 105.96 25.4512C105.578 26.3269 105.097 27.1602 104.474 27.923C102.676 30.1405 100.255 31.1999 97.4098 31.1999C95.881 31.1999 94.5078 30.8609 93.3328 30.1405V30.7479H85.094V0.648438H93.3328V10.6627C94.7202 9.67403 96.3764 9.16554 98.2592 9.16554C100.864 9.16554 103.171 10.0413 104.799 12.1176C106.342 14.0668 106.923 16.5103 107.008 18.9397C107.064 18.8267 107.135 18.6996 107.192 18.5866C107.9 17.2872 108.678 16.0301 109.287 14.6882C110.844 11.2701 110.717 8.36044 108.905 5.04117L107.093 1.73603L110.504 3.3321C113.463 4.71631 115.969 6.73612 118.12 9.1373C119.706 6.70787 122.027 5.0553 124.887 4.06658L127.378 3.20498L126.43 5.66265C125.269 8.69943 125.085 11.4113 126.883 14.2363C128.001 15.9877 129.275 17.3437 130.011 19.3635C130.337 20.2392 130.62 21.1855 130.79 22.1601L130.847 22.1884Z" fill="white"/>
<path d="M137.81 23.1929C137.81 23.9838 137.994 24.5771 138.377 24.9867C138.745 25.3963 139.268 25.594 139.891 25.594C140.203 25.594 140.528 25.5658 140.84 25.4952C141.151 25.4387 141.477 25.3822 141.788 25.3115V29.3653C141.095 29.5489 140.358 29.6901 139.58 29.8031C138.801 29.9161 137.994 29.9726 137.159 29.9726C136.395 29.9726 135.687 29.8455 135.064 29.5913C134.441 29.337 133.903 28.9698 133.45 28.4896C133.011 28.0093 132.657 27.4302 132.417 26.7522C132.176 26.0743 132.049 25.2974 132.049 24.4499V1.87891H137.782V23.1929H137.81ZM92.0577 19.4781V21.3849C92.0577 22.5855 92.3974 23.5883 93.1052 24.3793C93.7989 25.1703 94.6907 25.5658 95.7807 25.5658C97.0973 25.5658 98.1165 25.0573 98.8385 24.0403C99.5604 23.0234 99.9285 21.5827 99.9285 19.7323C99.9285 18.1928 99.5887 16.9781 98.9234 16.1165C98.2581 15.2549 97.3096 14.817 96.078 14.817C94.9172 14.817 93.9688 15.2407 93.2043 16.1165C92.4399 16.9781 92.0577 18.108 92.0577 19.4922V19.4781ZM92.2134 27.3455H92.1426V29.5207H86.3669V1.87891H92.1426V13.6588H92.2134C93.6432 11.4836 95.6675 10.396 98.3005 10.396C100.707 10.396 102.562 11.2294 103.878 12.8678C105.18 14.5204 105.832 16.7803 105.832 19.6476C105.832 22.755 105.067 25.255 103.552 27.1477C102.024 29.0404 99.9851 29.9726 97.4512 29.9726C95.1437 29.9726 93.4025 29.0969 92.2275 27.3455H92.2134ZM81.7945 29.5207H76.0329V19.1391C76.0329 16.2436 74.9995 14.8029 72.9327 14.8029C71.9277 14.8029 71.1066 15.1842 70.4696 15.947C69.8184 16.7097 69.4928 17.6843 69.4928 18.8707V29.5207H63.7171V10.848H69.4928V13.8H69.5636C70.9367 11.526 72.9469 10.396 75.5799 10.396C79.7277 10.396 81.7945 12.9667 81.7945 18.0939V29.5348V29.5207ZM53.7229 21.9358V20.6787L50.3254 21.1165C48.4426 21.3567 47.5083 22.2041 47.5083 23.659C47.5083 24.3087 47.7348 24.8596 48.1878 25.2692C48.655 25.6929 49.2637 25.9048 50.0423 25.9048C51.1323 25.9048 52.01 25.5375 52.6895 24.7889C53.369 24.0403 53.7087 23.094 53.7087 21.9499L53.7229 21.9358ZM59.1447 29.5207H53.6804V26.837H53.6096C52.3497 28.9274 50.4953 29.9726 48.0321 29.9726C46.2201 29.9726 44.7904 29.4642 43.7428 28.4331C42.6952 27.402 42.1856 26.0319 42.1856 24.3228C42.1856 20.7069 44.3374 18.6024 48.6408 18.0515L53.7229 17.3735C53.7229 15.3255 52.6187 14.3085 50.3962 14.3085C48.1737 14.3085 46.0503 14.9724 44.0401 16.3001V11.9638C44.847 11.5401 45.937 11.187 47.3385 10.8621C48.7258 10.5514 49.9998 10.396 51.1465 10.396C56.4833 10.396 59.1447 13.0514 59.1447 18.3623V29.5207ZM40.317 29.3088C39.4676 29.7608 38.1794 29.9868 36.4665 29.9868C32.4037 29.9868 30.3653 27.8822 30.3653 23.659V15.0995H27.3358V10.848H30.3653V6.8225L36.1268 5.18405V10.848H40.3312V15.0995H36.1268V22.6561C36.1268 24.5912 36.9054 25.5658 38.4484 25.5658C39.0571 25.5658 39.6941 25.3963 40.3312 25.0432V29.3088H40.317ZM11.3111 29.0263V24.3511C12.2596 24.9302 13.208 25.3539 14.1565 25.6223C15.1049 25.9048 15.9968 26.046 16.832 26.046C17.8512 26.046 18.6723 25.9048 19.2527 25.6223C19.8473 25.3398 20.1445 24.9161 20.1445 24.3511C20.1445 23.9838 20.0171 23.6731 19.7482 23.433C19.4792 23.1929 19.1394 22.981 18.7148 22.7974C18.2901 22.6138 17.8371 22.4443 17.3416 22.303C16.8462 22.1476 16.3648 21.9923 15.8977 21.8087C15.1616 21.5262 14.4962 21.2295 13.93 20.9047C13.3637 20.5798 12.8824 20.2126 12.5002 19.7747C12.118 19.351 11.8207 18.8566 11.6225 18.3058C11.4244 17.7408 11.3111 17.0911 11.3111 16.3142C11.3111 15.269 11.5376 14.365 11.9906 13.6164C12.4436 12.8678 13.0523 12.2463 13.8167 11.7661C14.5812 11.2859 15.4447 10.9327 16.4356 10.7068C17.4124 10.4808 18.4316 10.3678 19.4933 10.3678C20.3286 10.3678 21.1638 10.4243 22.0131 10.5655C22.8625 10.6926 23.7119 10.8762 24.5329 11.1164V15.5656C23.7968 15.1419 23.0182 14.817 22.183 14.6051C21.3478 14.3933 20.5267 14.2944 19.7198 14.2944C19.3376 14.2944 18.9837 14.3226 18.6581 14.3933C18.3184 14.4498 18.0211 14.5486 17.7663 14.6899C17.5115 14.817 17.3133 14.9724 17.1717 15.1842C17.016 15.382 16.9594 15.608 16.9594 15.8622C16.9594 16.2012 17.0585 16.4978 17.285 16.7379C17.5115 16.9781 17.7946 17.1899 18.1485 17.3735C18.5024 17.5572 18.8988 17.7125 19.3235 17.8397C19.7482 17.9809 20.187 18.1221 20.6117 18.2634C21.3761 18.5318 22.0698 18.8284 22.6926 19.1391C23.3155 19.4499 23.8534 19.8171 24.2923 20.2549C24.7311 20.6787 25.085 21.173 25.3115 21.7522C25.5522 22.3313 25.6654 23.0092 25.6654 23.8002C25.6654 24.9019 25.4248 25.8483 24.9435 26.6392C24.4621 27.4302 23.8251 28.0517 23.0324 28.5461C22.2396 29.0404 21.3053 29.3935 20.2719 29.6195C19.2244 29.8455 18.1485 29.9585 17.0302 29.9585C14.9775 29.9585 13.0665 29.6478 11.3111 29.0122V29.0263ZM7.1492 29.5207H1.24609V3.37611H7.1492V29.5207ZM110.036 4.44957C114.892 13.3198 107.29 18.1504 107.106 22.6844C107.021 24.8878 106.582 31.5405 118.162 29.6619C114.976 26.3709 115.047 23.3341 118.303 20.2832C121.488 22.4866 121.856 25.255 119.648 29.6478C130.166 31.3851 130.973 25.3115 128.934 19.803C128.227 17.8962 126.924 16.4978 125.919 14.9159C123.909 11.752 124.051 8.65869 125.367 5.24055C122.055 6.38464 119.733 8.40445 118.402 11.3141C115.812 8.05134 113.009 5.83378 110.05 4.44957H110.036Z" fill="white"/>
<path fill-rule="evenodd" clip-rule="evenodd" d="M107.744 39.6899L106.965 37.5995L106.201 39.6899H107.744ZM91.7191 38.4469H92.6392C92.9082 38.4469 93.1771 38.4469 93.4461 38.4328C93.531 38.4328 93.616 38.4328 93.7009 38.4046C93.7434 38.4046 93.8 38.3904 93.8566 38.3763C93.9982 38.3339 94.1114 38.2492 94.1822 38.1362C94.2672 38.0091 94.3096 37.8396 94.3096 37.6842C94.3096 37.5006 94.2672 37.3311 94.1539 37.204C94.0407 37.0627 93.8708 37.0062 93.7009 36.978C93.6585 36.978 93.616 36.978 93.5877 36.978C93.5169 36.978 93.4461 36.978 93.3753 36.978C93.1488 36.978 92.9223 36.978 92.6958 36.978H91.7191V38.4893V38.4469ZM65.601 39.6899L64.8224 37.5995L64.058 39.6899H65.601ZM10.293 38.4469H11.2131C11.4821 38.4469 11.7511 38.4469 12.02 38.4328C12.105 38.4328 12.1899 38.4328 12.2748 38.4046C12.3173 38.4046 12.3739 38.3904 12.4306 38.3763C12.5721 38.3339 12.6854 38.2492 12.7562 38.1362C12.8411 38.0091 12.8836 37.8396 12.8836 37.6842C12.8836 37.5006 12.8411 37.3311 12.7278 37.204C12.6146 37.0627 12.4447 37.0062 12.2748 36.978C12.2324 36.978 12.1899 36.978 12.1616 36.978C12.0908 36.978 12.02 36.978 11.9493 36.978C11.7228 36.978 11.4963 36.978 11.2698 36.978H10.293V38.4893V38.4469ZM133.777 36.9356H131.724V35.5232H137.472V36.9356H135.419V42.6984H133.763V36.9356H133.777ZM122.381 39.8453V35.509H123.924V42.6843H122.325L119.706 38.4469V42.6843H118.163V35.509H119.72L122.381 39.8453ZM108.296 41.1023H105.677L105.097 42.6843H103.341L106.13 35.509H107.786L110.66 42.6843H108.876L108.282 41.1023H108.296ZM94.3804 39.5628C94.5645 39.6899 94.7343 39.8311 94.89 40.0006C95.0174 40.1419 95.1307 40.2973 95.2439 40.4526C95.3997 40.6786 95.5554 40.9046 95.6969 41.1447L96.6595 42.6843H94.6918L93.6443 41.1165C93.5027 40.8905 93.347 40.6786 93.1913 40.4667C93.1064 40.3537 93.0073 40.2266 92.9082 40.1136C92.8091 40.0006 92.6817 39.9018 92.5401 39.8594C92.3561 39.7888 92.073 39.7888 91.8748 39.7888H91.7191V42.6843H90.0628V35.509H93.1347C93.4603 35.509 93.7859 35.509 94.1115 35.5514C94.338 35.5796 94.5786 35.622 94.7909 35.6926C95.159 35.8339 95.4421 36.074 95.6545 36.3989C95.881 36.752 95.9801 37.1475 95.9801 37.5571C95.9801 38.0656 95.8385 38.5458 95.4846 38.9272C95.1873 39.2662 94.7768 39.4498 94.3521 39.5487L94.3804 39.5628ZM76.0199 35.509H77.6762V39.3792C77.6762 39.6193 77.6762 39.8735 77.6762 40.1136C77.6762 40.2408 77.6762 40.3961 77.7186 40.5091C77.7753 40.7634 77.8885 40.9611 78.1009 41.1165C78.3415 41.3001 78.6529 41.3425 78.9502 41.3425C79.2192 41.3425 79.5448 41.3001 79.7571 41.1306C79.927 40.9894 80.0403 40.8199 80.0686 40.608C80.0969 40.4526 80.111 40.2972 80.111 40.156C80.111 39.93 80.1252 39.6899 80.1252 39.4639V35.509H81.7815V39.2803C81.7815 39.6334 81.7815 40.0006 81.7532 40.3537C81.739 40.5939 81.7107 40.834 81.6682 41.0741C81.5974 41.4131 81.4559 41.738 81.2294 41.9922C81.0029 42.2606 80.6914 42.4583 80.3658 42.5854C79.9412 42.7549 79.4457 42.8114 78.9927 42.8114C78.4972 42.8114 77.8885 42.769 77.4355 42.5713C77.1099 42.4301 76.8127 42.2182 76.5862 41.9357C76.388 41.6956 76.2464 41.4272 76.1756 41.1165C76.119 40.8764 76.0907 40.608 76.0765 40.3537C76.0482 40.0148 76.0482 39.6616 76.0482 39.3227V35.4949L76.0199 35.509ZM66.1531 41.1023H63.5342L62.9538 42.6843H61.1984L63.9872 35.509H65.6435L68.5172 42.6843H66.7335L66.1389 41.1023H66.1531ZM51.2892 36.9356H49.2365V35.5232H54.9839V36.9356H52.9313V42.6984H51.275V36.9356H51.2892ZM35.8306 40.2125L37.4303 40.0571V40.1701C37.5152 40.5091 37.6426 40.8764 37.9116 41.1023C38.1664 41.3283 38.5062 41.399 38.8459 41.399C39.1573 41.399 39.5396 41.3566 39.7802 41.1447C39.9642 40.9894 40.0775 40.8057 40.0775 40.5656C40.0775 40.4385 40.0492 40.3255 39.9642 40.2266C39.8651 40.0995 39.667 40.0148 39.5112 39.9724C39.3838 39.93 39.2423 39.8876 39.1149 39.8594C38.8742 39.7888 38.6336 39.7323 38.4071 39.6758C37.8833 39.5486 37.1896 39.3227 36.7791 38.9554C36.3403 38.5599 36.0996 38.0656 36.0996 37.4723C36.0996 37.091 36.2129 36.7379 36.4252 36.413C36.6517 36.074 36.9631 35.8198 37.3454 35.6644C37.7842 35.4808 38.2797 35.4102 38.761 35.4102C39.4688 35.4102 40.2474 35.5373 40.7994 36.0175C41.2808 36.4412 41.5073 37.0062 41.5356 37.6418V37.769L39.9076 37.8255V37.7125C39.851 37.4582 39.7519 37.1757 39.5537 37.0204C39.3414 36.8509 39.0158 36.8085 38.7468 36.8085C38.4495 36.8085 38.1098 36.8509 37.8691 37.0345C37.7559 37.1192 37.6993 37.2181 37.6993 37.3735C37.6993 37.5288 37.7559 37.6136 37.8691 37.6983C37.9682 37.7831 38.1523 37.8537 38.2797 37.9102C38.5486 38.0091 38.8176 38.0797 39.1007 38.1503C39.398 38.2209 39.7094 38.3057 39.9926 38.4046C40.2049 38.4752 40.4314 38.5599 40.6296 38.6588C40.9693 38.8424 41.2383 39.0825 41.4365 39.4074C41.6488 39.7605 41.7338 40.1701 41.7338 40.5797C41.7338 40.9894 41.6063 41.399 41.3799 41.7662C41.1392 42.1476 40.7995 42.4159 40.3889 42.5854C39.9076 42.7832 39.3555 42.8538 38.8318 42.8538C38.0956 42.8538 37.3029 42.7125 36.7366 42.2182C36.1846 41.7521 35.9439 41.0741 35.859 40.382V40.2549L35.8306 40.2125ZM24.35 36.9356V38.2351H27.8183V39.6475H24.35V41.2718H28.2147V42.6843H22.6938V35.509H28.0731V36.9215H24.3359L24.35 36.9356ZM12.9543 39.5628C13.1384 39.6899 13.3082 39.8311 13.464 40.0006C13.5914 40.1419 13.7046 40.2973 13.8179 40.4526C13.9736 40.6786 14.1293 40.9046 14.2709 41.1447L15.2335 42.6843H13.2658L12.2182 41.1165C12.0767 40.8905 11.9209 40.6786 11.7652 40.4667C11.6803 40.3537 11.5812 40.2266 11.4821 40.1136C11.383 40.0006 11.2556 39.9018 11.114 39.8594C10.93 39.7888 10.6469 39.7888 10.4487 39.7888H10.293V42.6843H8.63672V35.509H11.7086C12.0342 35.509 12.3598 35.509 12.6854 35.5514C12.9119 35.5796 13.1525 35.622 13.3649 35.6926C13.7329 35.8339 14.016 36.074 14.2284 36.3989C14.4549 36.752 14.554 37.1475 14.554 37.5571C14.554 38.0656 14.4124 38.5458 14.0585 38.9272C13.7612 39.2662 13.3507 39.4498 12.926 39.5487L12.9543 39.5628Z" fill="white"/>
</g>
<defs>
<clipPath id="clip0_512_944">
<rect width="143.019" height="42.1618" fill="white" transform="translate(0.015625 0.648438)"/>
</clipPath>
</defs>
</svg>
