<svg width="159" height="45" viewBox="0 0 159 45" fill="none" xmlns="http://www.w3.org/2000/svg">
<g clip-path="url(#clip0_512_850)">
<path d="M79.7929 13.2794V13.182C82.0085 12.9871 83.7126 11.4302 83.7126 9.42425C83.7126 7.41834 82.1055 5.33984 78.4541 5.33984H72.7695V22.3365H79.1844C82.8853 22.3365 84.7586 20.3077 84.7586 17.6657C84.7586 15.4878 82.6647 13.2794 79.7929 13.2794ZM78.8439 22.0443H74.0856V5.63213H77.7257C81.1565 5.63213 82.2539 7.6132 82.2539 9.54651C82.2539 11.4798 81.1109 12.8706 78.7507 13.0903H75.1126V13.3826H78.7507C81.8184 13.8239 83.279 15.7323 83.279 17.8357C83.279 20.2561 81.9401 22.0423 78.8477 22.0423" fill="white"/>
<path d="M133.863 16.5901C133.863 19.1825 132.697 22.2162 128.996 22.2162C125.295 22.2162 124.082 19.1577 124.082 16.5901V5.33984H122.84V16.1985C122.84 18.8883 124.224 22.5066 128.996 22.5066C133.768 22.5066 135.177 18.8883 135.177 16.1985V5.33984H133.863V16.5901Z" fill="white"/>
<path d="M156.004 4.70703H155.907L149.235 21.4344L142.248 4.73187H142.126L138.984 22.3399H139.477L142.004 7.27459L148.724 23.2683H148.845L155.232 7.20964L157.635 22.3399H158.828L156.004 4.70703Z" fill="white"/>
<path d="M24.2699 4.69922L17.2617 22.3359H17.5812L23.8838 6.53319L30.4983 22.3359H31.7992L24.3916 4.69922H24.2699Z" fill="white"/>
<path d="M110.149 13.3862H112.129C114.552 13.4397 116.64 13.2429 116.64 16.8631C116.64 20.4832 113.688 22.2351 110.792 22.2351C106.117 22.2351 104.002 18.3952 104.002 13.8447C104.002 9.29412 106.471 5.51537 111.376 5.51537C113.363 5.51537 115.284 6.37123 116.064 7.50026L116.301 7.33597C115.44 6.07703 113.452 5.24219 111.315 5.24219C106.117 5.24219 102.57 8.95789 102.57 13.8867C102.57 18.8155 105.942 22.5102 110.792 22.5102C114.557 22.5102 118.12 20.3266 118.12 16.865C118.12 14.6738 116.492 13.518 114.639 13.3881H119.348V13.1283H110.149V13.3881V13.3862Z" fill="white"/>
<path d="M99.442 5.77915L99.3812 5.33594H89.4023V22.3384L99.3812 22.3365L99.442 21.8932L90.6918 22.0442V13.3825H98.4987V13.0902H90.6918V5.63014L99.442 5.77915Z" fill="white"/>
<path d="M60.5905 5.77915L60.5296 5.33594H50.5508V22.3384L60.5296 22.3365L60.5905 21.8932L51.8383 22.0442V13.3825H59.6472V13.0902H51.8383V5.63014L60.5905 5.77915Z" fill="white"/>
<path d="M46.1764 5.77915L46.1155 5.33594H36.1367V22.3384H37.4261V13.3825H45.235V13.0902H37.4261V5.63014L46.1764 5.77915Z" fill="white"/>
<path d="M58.4348 1.14263L57.7083 0.359375C56.7383 1.21905 54.9069 2.54104 52.1797 2.64993V2.86771C52.3147 2.88108 52.4497 2.88108 52.5943 2.88108C55.6125 2.88108 57.4173 2.00231 58.4348 1.14263Z" fill="white"/>
<path d="M9.37755 5.61853C11.2832 5.61853 12.8921 6.20693 14.1264 7.55375L14.9537 6.6616C13.7118 5.60516 11.6388 5.24219 9.92907 5.24219C4.71049 5.24219 0.929688 9.22534 0.929688 14.4885C0.929688 19.7516 5.04331 22.5083 9.24062 22.5083C12.1105 22.5083 13.7955 21.6448 14.8167 20.1699C13.7955 21.1442 12.4984 21.7288 10.317 21.7288C5.62337 21.7288 1.95286 18.4697 1.95286 13.1512C1.95286 8.58345 5.37613 5.61853 9.37945 5.61853" fill="white"/>
<path d="M61.441 31.4042C63.0423 30.5904 63.765 29.639 64.0788 28.9131L63.4874 28.6953C63.1983 29.4117 62.546 30.5407 61.1367 31.3374L61.2242 31.5112C61.2946 31.4768 61.3725 31.4424 61.4429 31.4061" fill="white"/>
<path d="M106.763 35.9605C106.238 35.1371 105.658 34.394 104.656 33.4235L104.021 32.8561L109.209 29.2359L108.773 28.6953L103.401 33.1026V33.2783L104.062 33.9527C105.934 35.5956 106.909 37.187 106.909 38.1422C106.909 39.3667 105.917 39.9876 104.237 39.9876H103.967C102.374 39.9876 101.495 39.2177 101.495 37.6092V35.9662H101.198V37.3914C101.198 38.7726 100.128 39.9704 98.7526 39.9895H98.5339C97.6115 39.98 96.7842 39.8844 96.0805 39.6915C97.3681 38.8872 98.1003 37.6894 98.1003 36.2375C98.1003 34.2182 96.8641 32.732 95.2266 32.732C93.5891 32.732 92.353 34.2526 92.353 36.3006C92.353 37.7429 93.0585 38.914 94.2776 39.7201C93.5207 39.9131 92.6763 39.9914 91.7178 39.9914H84.7895C82.2486 39.9914 80.75 40.6906 80.75 42.5189C80.75 43.9096 81.699 45.01 83.5704 45.01H91.4819V44.1885H83.5704C82.0813 44.1885 80.9059 43.3403 80.9059 42.4826C80.9059 41.1892 82.6214 40.8129 84.7875 40.8129H91.5352C92.9102 40.8129 94.1293 40.576 95.1296 40.1748C96.0786 40.576 97.2197 40.8129 98.5339 40.8129H98.5529C98.5871 40.8129 98.6213 40.8129 98.648 40.8033C99.867 40.7766 100.789 40.1748 101.259 39.0553C101.554 40.1137 102.235 40.6906 103.366 40.7957H103.374C103.399 40.8033 103.425 40.8148 103.461 40.8148H104.201C105.162 40.8148 106.221 40.5856 106.833 39.7775C107.4 39.0286 107.415 38.039 107.229 37.1564C107.14 36.738 106.991 36.3311 106.761 35.9701M92.5736 36.3101C92.5736 34.7359 93.941 33.563 95.2285 33.563C96.516 33.563 97.8758 34.7359 97.8758 36.3101C97.8758 37.7716 96.6834 38.8108 95.2285 39.3973C93.7736 38.8108 92.5736 37.7716 92.5736 36.3101Z" fill="white"/>
<path d="M76.1541 37.4812L76.0058 34.6137H75.692L75.7699 37.4812C75.884 39.2215 74.8114 39.9742 73.2462 39.9838H73.2291C71.6525 39.9742 70.7739 39.2063 70.7739 37.6054V35.9605H70.4867V37.3857C70.4867 38.7669 69.416 39.9647 68.041 39.9838H68.0067C66.9094 39.9742 66.4225 39.5196 65.6466 37.7009C64.8992 35.8917 64.2982 34.9728 62.695 33.4254L62.0598 32.858L67.2479 29.2379L66.8124 28.6953L61.4398 33.1026V33.2783L62.1111 33.9508C63.9749 35.5956 64.9486 37.187 64.9486 38.1403C64.9486 39.3648 63.9559 39.9857 62.2766 39.9857H61.7193C60.5174 39.9857 59.8651 39.5043 59.3516 37.5882L59.0473 36.4438C58.6118 34.9213 57.7864 34.266 56.5502 34.266C55.314 34.266 54.4962 34.9919 53.6252 36.9692L53.1193 38.1403C51.3697 38.1746 50.5157 39.0859 50.5519 40.9294V44.8648H51.3525V40.9294C51.3525 39.6361 51.8831 38.4192 53.1878 38.4115C54.6503 39.9169 55.6088 40.9734 56.6434 40.9734C58.7677 40.9734 58.7506 39.2769 58.897 37.5977C59.4809 39.468 60.1941 40.7976 61.5006 40.8072H62.2404C64.0243 40.8072 65.1141 40.0564 65.348 38.5949C65.9223 40.1958 66.6184 40.7995 67.8108 40.8072H67.8204C67.8546 40.8072 67.8983 40.8072 67.9326 40.7995C69.1516 40.7747 70.074 40.1691 70.5438 39.0515C70.8747 40.2149 71.6677 40.7995 73.0161 40.8091H73.2253C75.2013 40.8091 76.2549 39.7698 76.1503 37.4869M56.6985 40.1481C55.8275 40.1481 54.9222 39.8768 53.6252 38.4517L54.1729 37.2003C54.8956 35.609 55.5137 35.0321 56.5141 35.0321C57.7331 35.0321 58.4824 35.9949 58.4824 37.7162C58.4824 39.2292 57.8301 40.1481 56.6985 40.1481Z" fill="white"/>
<path d="M69.6531 41.7263L68.8906 42.4922L69.6531 43.2581L70.4156 42.4922L69.6531 41.7263Z" fill="white"/>
<path d="M71.5398 41.7263L70.7773 42.4922L71.5398 43.2581L72.3023 42.4922L71.5398 41.7263Z" fill="white"/>
<path d="M97.993 41.7263L97.2305 42.4922L97.993 43.2581L98.7555 42.4922L97.993 41.7263Z" fill="white"/>
<path d="M99.8797 41.7263L99.1172 42.4922L99.8797 43.2581L100.642 42.4922L99.8797 41.7263Z" fill="white"/>
<path d="M75.6062 41.7263L74.8438 42.4922L75.6062 43.2581L76.3687 42.4922L75.6062 41.7263Z" fill="white"/>
<path d="M95.2195 30.0466L94.457 30.8125L95.2195 31.5784L95.982 30.8125L95.2195 30.0466Z" fill="white"/>
</g>
<defs>
<clipPath id="clip0_512_850">
<rect width="157.9" height="44.6419" fill="white" transform="translate(0.929688 0.359375)"/>
</clipPath>
</defs>
</svg>
