<svg width="83" height="57" viewBox="0 0 83 57" fill="none" xmlns="http://www.w3.org/2000/svg">
<g clip-path="url(#clip0_512_910)">
<mask id="mask0_512_910" style="mask-type:luminance" maskUnits="userSpaceOnUse" x="0" y="0" width="83" height="57">
<path d="M82.6247 0.0351562H0.78125V56.2509H82.6247V0.0351562Z" fill="white"/>
</mask>
<g mask="url(#mask0_512_910)">
<path fill-rule="evenodd" clip-rule="evenodd" d="M60.2242 27.6789C60.2242 27.6789 61.9504 33.0907 66.7148 34.6359C71.4793 36.1811 75.8826 33.8751 77.8799 31.8078C79.8773 29.74 81.4173 27.3395 81.5616 22.6812C81.7059 18.0228 79.4443 13.0553 76.3643 11.3441C73.2842 9.63292 71.3749 9.35523 68.9733 9.94825C68.9733 9.94825 68.1562 10.2235 68.0487 11.1213C67.9412 12.0192 69.1064 12.4197 69.2557 12.4197C69.4051 12.4197 69.4369 12.8004 68.8621 12.8158C68.288 12.8313 67.3515 12.4585 67.2809 11.3398C67.2103 10.221 67.8394 9.22626 69.46 8.89982C71.0807 8.57338 74.5737 8.62213 77.2158 10.9868C79.8573 13.3515 80.7107 14.4523 81.5772 17.0478C82.4438 19.6433 82.6643 22.4837 82.4438 24.6854C82.2239 26.8872 80.9144 30.2102 78.9364 32.1324C76.9584 34.0546 75.0279 35.5708 71.0569 35.7892C67.0853 36.0083 63.3674 34.5859 61.5475 31.7572C59.7282 28.9285 60.0449 27.69 60.0449 27.69C60.0449 27.69 60.1592 27.545 60.2242 27.6789ZM21.789 5.2257C21.789 5.2257 21.7409 7.76562 23.0929 7.76562C24.4449 7.76562 28.7388 5.53301 30.1383 4.81226C31.5378 4.0915 35.7243 2.47289 38.0809 1.74041C40.4375 1.00793 43.2239 0.157593 46.9562 0.133527C50.6879 0.110078 53.2238 0.665453 55.0181 1.55097C56.8124 2.4371 57.1816 2.51794 57.2635 3.09861C57.3447 3.67929 56.2145 4.07237 54.5683 3.95636C54.5683 3.95636 54.404 3.90021 54.7051 3.50466C55.0062 3.10911 54.905 1.85951 52.8995 1.42447C50.8941 0.989422 46.5389 -0.0201268 39.098 2.15386C31.6571 4.32846 26.8539 7.34724 24.9984 8.08403C23.1429 8.82083 22.4706 8.47341 21.8965 7.91804C21.3223 7.36266 21.4229 5.74776 21.5048 5.39972C21.586 5.05107 21.7903 5.22509 21.7903 5.22509L21.789 5.2257ZM72.3639 14.9472C75.2972 14.7171 73.967 25.1853 73.4716 26.8594C72.9462 28.6354 71.9185 28.5731 71.4455 28.5373C70.9726 28.5015 70.0992 27.711 70.0448 25.321C70.0011 23.4173 69.9392 15.1373 72.3639 14.9472ZM68.7035 15.0034C68.7035 15.0034 69.4051 12.6801 70.9588 12.2185C72.5132 11.7563 74.0258 11.7563 75.2091 12.8572C76.3917 13.9574 77.7956 17.4649 77.1702 22.9064C76.5448 28.3478 74.8742 30.0312 73.1099 30.8038C71.3456 31.5764 69.0896 30.8575 68.1255 28.2528C67.1615 25.6475 67.4158 22.9885 67.6345 21.0119C67.8525 19.0354 68.0162 17.7599 68.7035 15.0034ZM55.8159 6.37965C55.8159 6.37965 56.1277 5.93782 57.2404 6.05074C58.3531 6.16367 61.1807 6.31794 61.3263 6.7283C61.4719 7.13928 60.9933 7.37501 60.5466 7.67306C60.0993 7.97111 60.0993 8.54623 59.9643 9.76806C59.8294 10.9899 59.2458 17.9259 59.2458 17.9259L61.9917 17.6852C61.9917 17.6852 62.3884 17.6988 62.3846 17.2971C62.3815 16.8954 63.4642 8.33519 63.4642 8.33519C63.4642 8.33519 62.3971 8.12106 62.3971 7.37069C62.3971 7.37069 62.4152 6.88874 63.2562 6.90602C64.0971 6.92392 67.3971 6.91466 67.6688 7.2991C67.94 7.68293 67.3977 7.73662 66.7105 8.44256C66.0232 9.14789 65.7252 11.1306 65.6165 12.1309C65.5078 13.1312 65.1673 17.1317 65.1673 17.1317L66.5718 17.0941C66.5718 17.0941 66.9979 17.0219 67.0291 17.7618C67.0603 18.501 66.8317 18.7886 66.7273 18.7991C66.6236 18.8096 65.0217 18.8608 65.0217 18.8608C65.0217 18.8608 64.8656 23.5852 65.053 25.1155C65.2404 26.6459 65.6696 28.8464 67.4995 30.4527C67.4995 30.4527 67.021 31.079 66.0289 30.8427C65.0361 30.6064 63.4461 29.1303 62.812 27.4765C62.1785 25.8227 62.0348 23.6376 62.1066 21.7006C62.1785 19.7636 62.2259 19.2557 62.2259 19.2557L59.1165 19.6574L58.9253 24.5003C58.9253 24.5003 60.2467 25.6419 60.1761 25.906C60.1055 26.1701 59.9481 26.2553 59.0834 26.2942C58.2187 26.3331 54.7663 26.504 54.7276 25.906C54.6882 25.3081 55.1206 25.4093 55.6791 24.9971C56.2376 24.5855 56.2845 24.1504 56.3001 23.4513C56.3157 22.7521 56.4575 19.7858 56.4575 19.7858C56.4575 19.7858 54.7732 19.8611 54.5614 18.9089C54.3496 17.9568 56.695 18.0783 56.695 18.0783C56.695 18.0783 57.4778 9.44779 57.4228 8.49686C57.3678 7.54594 57.4628 7.35773 56.9274 7.09917C56.3919 6.84061 55.7916 6.65302 55.8165 6.38027L55.8159 6.37965ZM49.4534 5.9372C49.4534 5.9372 51.2589 4.969 53.052 5.9372C54.845 6.90541 55.2518 9.04298 54.9406 10.4715C54.6295 11.9001 53.8648 12.2284 51.9936 11.7193C51.9936 11.7193 51.7175 11.5829 52.0386 11.1238C52.3597 10.6647 52.8108 9.46939 52.0867 8.84181C51.362 8.21424 49.499 7.72674 48.7817 10.9504C48.0645 14.174 47.9902 17.1391 48.1539 18.7738C48.3176 20.4084 48.4944 22.9126 49.7151 23.1631C50.9359 23.413 52.1648 23.1452 51.9574 21.6809C51.7494 20.2165 50.8091 19.7074 50.8997 19.4754C50.9903 19.2434 52.0024 19.1002 52.9339 19.3322C53.8648 19.5643 54.6695 19.6445 54.6151 21.136C54.5608 22.6275 53.5687 25.5271 50.8047 25.5543C48.0408 25.5814 46.4601 24.5355 46.0884 20.6244C45.7173 16.7133 45.951 12.9652 46.2396 11.5798C46.5282 10.1945 46.6794 7.4651 49.4534 5.93782V5.9372ZM35.247 6.24759C35.247 6.24759 37.8491 5.53178 40.5168 5.4966C40.5168 5.4966 40.7486 5.81934 40.5168 6.05383C40.285 6.28832 39.9289 6.2297 40.0595 6.92207C40.1901 7.61443 41.106 14.3018 41.8226 16.9343C41.8226 16.9343 42.07 18.1468 42.2749 18.2412C42.4798 18.3356 42.5348 18.1061 42.6916 16.6146C42.849 15.1231 43.5463 7.77549 43.56 7.32749C43.5738 6.87949 43.297 6.71287 42.8515 6.44259C42.4061 6.17293 41.96 5.93782 41.9781 5.45649C41.9962 4.97517 42.4536 5.02824 43.1427 5.03379C43.8318 5.03996 46.8862 5.07513 46.8862 5.07513C46.8862 5.07513 47.8252 5.15721 47.1536 5.72677C46.482 6.29634 45.9297 6.19638 45.603 7.47004C45.2762 8.7437 45.0494 11.7544 44.9057 13.0293C44.7621 14.3042 44.4753 16.6177 44.4515 18.1882C44.4278 19.758 44.4634 23.2051 44.4634 23.5944C44.4634 23.9838 44.4028 24.3423 43.8287 24.3423C43.2545 24.3423 41.7582 23.8697 40.415 21.3094C39.0717 18.7491 38.3739 15.6371 38.3739 15.6371C38.3739 15.6371 38.1815 15.4582 38.1452 15.8821C38.109 16.3054 37.959 22.5405 38.0665 23.579C38.0665 23.579 38.1996 23.9801 38.9305 24.0684C39.6615 24.156 39.9558 24.5071 39.3067 25.0335C38.6575 25.5599 34.3379 26.0122 33.7882 25.7407C33.2384 25.4691 33.6338 25.0292 34.3417 24.641C35.0489 24.2529 35.3713 24.4392 35.3082 23.0884C35.2451 21.7376 35.455 16.8485 35.4431 15.6328C35.4431 15.6328 35.6949 10.9448 35.8692 9.99267C36.0429 9.0399 36.4971 8.03467 36.4971 7.68663C36.4971 7.3386 36.5765 7.37562 36.2041 7.30898C35.8317 7.24233 34.9533 6.76286 35.2476 6.24759H35.247ZM23.2585 10.4431C23.2585 10.4431 25.3008 9.636 27.7986 9.39596C27.7986 9.39596 28.1522 9.6829 27.7673 10.1716C27.3825 10.6604 27.0526 10.5672 26.9664 11.0559C26.8802 11.5446 26.7346 18.9108 26.7346 20.3467C26.7346 21.7827 26.6559 25.0822 27.8654 25.305C29.0743 25.5278 29.7753 24.9465 30.0777 23.3445C30.3801 21.7432 30.7375 17.5359 30.7512 14.8084C30.7649 12.0803 30.8618 9.44038 30.8618 9.44038L29.1337 8.81343C29.1337 8.81343 29.1181 7.99888 30.9011 7.67306C32.6842 7.34724 33.3521 7.36266 34.0281 7.71193C34.7034 8.0612 34.9077 8.21609 34.9077 8.21609L32.9435 8.8992C32.9435 8.8992 32.473 15.3348 32.4593 16.8546C32.4455 18.3745 32.0607 22.8533 31.7995 24.509C31.5384 26.1646 30.8305 27.2297 29.4386 27.7733C28.0466 28.317 26.4985 28.0504 25.6044 26.7576C24.711 25.4648 24.6592 24.3047 24.5342 21.8833C24.4093 19.4612 24.6279 14.1352 24.6279 14.1352L24.6329 12.5573C24.6329 12.5573 24.6623 12.2524 24.1637 11.9063C23.6646 11.5601 23.2428 11.0497 23.1779 10.7912C23.1129 10.5326 23.2591 10.4438 23.2591 10.4438L23.2585 10.4431ZM18.3379 20.0117L18.6827 11.9427C18.6827 11.9427 20.7994 12.2895 21.2099 14.287C21.6203 16.2845 21.2374 17.6889 20.329 18.6214C19.4212 19.5538 18.3379 20.0117 18.3379 20.0117ZM12.0153 14.5005C12.0153 14.5005 11.7898 13.1447 12.8731 11.9673C13.957 10.7899 16.0975 10.1149 18.3778 10.3858C20.6576 10.6573 22.8105 11.8896 23.3553 14.5449C23.9001 17.2002 23.3553 18.725 22.3563 19.8913C21.3573 21.0576 20.0135 22.0264 20.0135 22.0264C20.0135 22.0264 21.2036 25.1236 21.8359 26.4935C22.4675 27.8634 23.4321 28.9433 24.4705 29.5592C25.5088 30.1744 25.4907 30.7903 24.6061 31.2185C23.7208 31.6468 22.61 31.7628 21.5266 30.3176C20.4427 28.8724 19.7954 27.4654 19.0688 25.2939C18.3422 23.123 18.3422 22.9076 18.3422 22.9076L18.3685 30.167C18.3685 30.167 18.3166 30.5539 18.9807 31.1074C19.6455 31.6616 19.6249 32.2151 18.4716 32.3182C17.3189 32.4206 15.7195 32.4514 15.1585 32.1435C14.5974 31.8356 14.5043 31.2099 15.1066 30.8921C15.7089 30.5743 15.8857 30.4922 15.8751 29.7023C15.8644 28.9125 15.8644 21.8691 15.8644 21.8691C15.8644 21.8691 14.5 21.2125 14.5812 20.5788C14.6624 19.9456 15.9719 19.7846 15.9719 19.7846L16.0881 12.8732C16.0881 12.8732 15.8232 12.4406 15.3046 12.7745C14.7861 13.1083 14.7236 13.3873 14.708 14.2641C14.6924 15.141 14.2919 15.3502 13.6084 15.3656C12.9249 15.3811 12.2577 15.265 12.0153 14.5005ZM7.87751 30.109L7.61636 34.884C7.61636 34.884 9.63496 35.0062 10.8714 33.6362C12.1071 32.2663 10.9951 30.5977 10.3222 30.2318C9.64933 29.8652 7.87751 30.1096 7.87751 30.1096V30.109ZM7.98809 27.9375C7.98809 27.9375 8.55225 20.9521 8.23612 19.8136C8.23612 19.8136 11.2212 19.5482 11.7104 21.9505C12.2002 24.3528 11.7579 25.3667 10.9207 26.3337C10.0835 27.3006 9.62808 27.4611 9.62808 27.4611C9.62808 27.4611 9.0683 27.4346 7.98809 27.9375ZM4.7912 17.5285C8.36607 16.1154 11.0188 17.5822 12.2533 18.7837C13.4878 19.9851 13.9739 21.3347 14.1663 22.7046C14.3588 24.0739 14.0839 25.6876 12.9993 26.9353C11.9147 28.1831 11.6067 28.2312 11.6461 28.3633C11.6854 28.4953 13.7596 29.6295 13.9802 31.2673C14.2013 32.905 14.3256 35.8491 10.5252 36.9833C6.72483 38.1175 4.5944 36.8512 4.2008 36.12C3.80658 35.3888 4.53192 34.8778 4.53192 34.8778L4.327 34.4934H5.13919C5.13919 34.4934 5.82455 26.7749 5.78269 23.3729C5.74083 19.9709 5.76145 19.692 5.76145 19.692C5.76145 19.692 4.56753 19.6099 4.15207 20.6664C3.7366 21.7228 3.91341 24.0813 3.91341 24.0813C3.91341 24.0813 2.28529 24.7151 1.55619 24.0918C0.1736 22.9095 1.12823 20.5195 2.54644 18.9694C3.25616 18.1937 4.04898 17.8216 4.7912 17.5285Z" fill="white"/>
<path fill-rule="evenodd" clip-rule="evenodd" d="M28.6125 32.8065C28.6125 32.8065 27.8797 32.2079 27.9971 30.6886C28.1146 29.1694 29.1011 29.125 29.6346 29.2854C30.1682 29.4465 30.25 30.1703 29.7071 31.0101C29.1642 31.85 29.291 32.4399 29.2816 32.7349C29.2729 33.0299 28.6119 32.8065 28.6119 32.8065" fill="white"/>
<path fill-rule="evenodd" clip-rule="evenodd" d="M21.5309 35.2616C21.6352 35.2616 25.2563 35.4362 26.5046 35.8164C26.5046 35.8164 24.2673 34.7784 21.6246 34.9426C21.6246 34.9426 21.2704 35.016 21.5309 35.261M21.8439 33.3499C23.3471 33.4437 28.0634 35.0222 28.6962 35.9756C29.3291 36.929 29.2185 37.0073 28.7593 36.9444C28.3001 36.8821 25.4044 35.9756 22.0176 36.1786C22.0176 36.1786 20.2089 36.2169 19.5117 36.2995C18.8144 36.3816 18.3877 35.6109 18.5439 34.8605C18.7888 33.6837 20.9124 33.2913 21.8433 33.3493L21.8439 33.3499Z" fill="white"/>
<path fill-rule="evenodd" clip-rule="evenodd" d="M18.4089 38.5591C18.4089 38.5591 18.7319 38.0037 20.3956 37.9087C22.0593 37.8143 25.3143 38.1567 27.6716 40.0364C27.6716 40.0364 28.0964 40.4461 28.0883 40.6331C28.0802 40.8201 27.7497 40.8663 26.6013 40.5165C25.4524 40.1666 22.6041 39.2187 21.3134 39.3897C21.3134 39.3897 23.2882 40.1592 25.0351 40.4702C26.7819 40.7812 27.0968 40.7886 27.0968 40.7886C27.0968 40.7886 24.7358 41.0762 22.2811 41.1385C19.8258 41.2008 18.6457 40.4776 18.3077 39.8636C17.969 39.2496 18.4095 38.5591 18.4095 38.5591" fill="white"/>
<path fill-rule="evenodd" clip-rule="evenodd" d="M20.8484 43.3872C22.6914 43.1861 25.7434 43.399 25.7434 43.399C25.7434 43.399 22.021 43.4107 19.4839 45.0423C19.4839 45.0423 23.7566 43.5643 27.4908 43.7655C27.4908 43.7655 22.6677 45.2903 20.8009 46.4844C13.9492 50.8663 12.9839 44.245 20.849 43.3872" fill="white"/>
<path fill-rule="evenodd" clip-rule="evenodd" d="M20.9721 51.8043C20.9721 51.8043 20.3018 50.7639 21.8937 49.6883C23.4856 48.6127 25.2805 47.6667 28.871 47.3125C28.871 47.3125 25.4004 47.8444 23.5449 50.1733C23.5449 50.1733 26.9442 47.8093 28.6073 47.5964C28.6073 47.5964 29.0622 47.4902 28.9185 47.8093C28.7748 48.1283 25.8546 50.0196 24.3109 51.3791C22.7671 52.7385 21.7375 52.9631 20.9715 51.8049" fill="white"/>
<path fill-rule="evenodd" clip-rule="evenodd" d="M29.8173 54.6332C29.8173 54.6332 29.1832 53.9409 29.7536 52.4926C30.324 51.0443 30.8576 50.4901 31.5548 50.3828C31.5548 50.3828 30.8401 51.7144 30.6408 52.6444C30.4415 53.5743 30.4465 53.8181 30.5533 53.7773C30.6601 53.736 31.6635 51.4812 31.8509 50.4426C31.8509 50.4426 32.1321 50.0212 32.0384 50.8536C31.9446 51.6861 31.8303 53.6397 31.1849 54.2975C30.5396 54.9554 29.8173 54.6332 29.8173 54.6332Z" fill="white"/>
<path fill-rule="evenodd" clip-rule="evenodd" d="M35.324 53.8767C35.324 53.8767 35.0866 52.0471 35.9256 50.8592C36.7647 49.6707 37.5088 49.8743 38.0467 50.3118C38.5852 50.7493 39.4236 51.4689 39.5192 52.1415C39.6142 52.8141 39.7092 54.3772 38.6327 55.3466C37.5562 56.316 36.8753 56.0032 36.2742 55.6434C35.6726 55.2837 35.4352 54.9085 35.3246 53.8767" fill="white"/>
<path fill-rule="evenodd" clip-rule="evenodd" d="M44.1562 52.4379C44.1562 52.4379 44.4093 53.3919 44.4411 54.3453C44.473 55.2993 44.9953 56.2219 46.0399 56.1435C47.0845 56.0651 46.7684 54.4546 45.9131 53.4382L45.0584 52.4219C45.0584 52.4219 45.7862 54.4829 45.8225 54.7668C45.8581 55.0507 44.1562 52.4373 44.1562 52.4373" fill="white"/>
<path fill-rule="evenodd" clip-rule="evenodd" d="M48.2109 49.3148C48.2109 49.3148 52.0525 49.1889 53.7819 50.0701C55.5112 50.9513 55.4568 52.0664 54.8196 52.7137C54.1823 53.361 52.9078 53.253 51.4153 52.5878C49.9221 51.9226 46.4453 50.1244 46.4453 50.1244C46.4453 50.1244 46.8233 49.7721 47.966 50.0572C49.1087 50.3429 52.8391 51.8794 53.0322 51.743C53.2246 51.6073 52.6742 50.6958 51.2285 50.2472C49.7828 49.7986 48.2109 49.3148 48.2109 49.3148Z" fill="white"/>
<path fill-rule="evenodd" clip-rule="evenodd" d="M53.4688 46.3602C53.4688 46.3602 56.1921 45.2655 58.7249 45.563C61.2576 45.8598 63.2843 46.5793 63.6323 47.6586C63.9803 48.7372 63.9172 50.2855 61.6693 50.3484C59.4215 50.4108 57.8221 48.8631 55.9703 48.1282C54.1179 47.3932 53.8055 47.1785 53.9779 47.0446C54.1497 46.9107 55.5261 46.9465 56.4851 46.9822C57.4447 47.018 60.3049 48.4219 60.4498 48.2874C60.5948 48.1535 58.25 46.562 57.2998 46.4725C56.3495 46.3831 55.3087 46.6243 54.7745 46.6243C54.2403 46.6243 53.4619 46.7403 53.4694 46.3608" fill="white"/>
<path fill-rule="evenodd" clip-rule="evenodd" d="M65.3405 44.6745C65.3405 44.6745 65.6528 44.1499 67.0892 43.9549C68.5255 43.7593 69.7544 44.2943 69.8893 44.9521C70.0249 45.61 69.4002 46.1758 68.6192 45.9703C67.8383 45.7648 67.1516 44.7467 66.4019 44.6646C65.6522 44.5825 65.3398 44.6751 65.3398 44.6751" fill="white"/>
<path fill-rule="evenodd" clip-rule="evenodd" d="M56.0547 43.1941C56.0547 43.1941 59.136 41.7544 61.77 41.3434C64.404 40.9318 64.8201 41.5699 64.9969 42.0222C65.1737 42.4745 65.1218 43.5026 63.8935 43.5439C62.6653 43.5853 58.7824 43.2971 57.4185 43.2459L56.0547 43.1947" fill="white"/>
<path fill-rule="evenodd" clip-rule="evenodd" d="M55.9766 40.3354C55.9766 40.3354 56.6738 39.1839 58.9748 37.9911C61.2758 36.7983 63.2431 36.8186 63.8367 36.9729C64.4302 37.1272 64.5964 37.8158 64.4508 38.423C64.3052 39.0296 63.1288 39.0093 61.7962 39.0191C60.4636 39.0296 58.1626 39.6769 57.7671 39.7695C57.3717 39.8621 62.5453 38.1349 62.7852 37.9596C63.0245 37.785 59.1104 38.5767 56.6532 40.0472L55.9766 40.3354Z" fill="white"/>
<path fill-rule="evenodd" clip-rule="evenodd" d="M56.8979 36.3262C56.8979 36.3262 56.7955 35.7788 57.1241 35.4876C57.4527 35.1969 58.2468 34.5138 58.979 34.5002C59.7112 34.4867 60.0605 35.0747 59.5407 35.548C59.0202 36.0213 57.8632 36.6977 57.6858 36.7045C57.5077 36.7112 57.9188 36.1429 58.2537 35.6091C58.5891 35.0747 58.6304 34.8791 58.6304 34.8791C58.6304 34.8791 57.4596 35.9004 57.354 36.1404C57.2484 36.3805 57.1247 36.4076 57.1247 36.4076C57.1247 36.4076 56.9535 36.4823 56.8986 36.3268" fill="white"/>
<path fill-rule="evenodd" clip-rule="evenodd" d="M53.2422 32.007C53.2422 32.007 54.6023 29.8015 56.0592 29.3634C57.5162 28.9253 58.1653 29.6608 58.1497 30.2551C58.1341 30.8493 57.643 32.1323 56.1704 32.476C54.6979 32.8203 53.5783 32.4766 53.5783 32.4766C53.5783 32.4766 54.5698 32.2859 55.272 31.6195C55.9743 30.953 56.043 30.5315 56.043 30.5315C56.043 30.5315 55.1065 31.6738 54.418 31.9052C53.7295 32.1366 53.2422 32.007 53.2422 32.007Z" fill="white"/>
<path fill-rule="evenodd" clip-rule="evenodd" d="M52.079 28.9257C52.079 28.9257 51.418 28.3543 51.418 27.715C51.418 27.0757 51.9828 26.6406 52.4644 26.7357C52.9461 26.8307 53.2904 27.3886 53.0842 27.9186C52.8774 28.4493 52.8362 29.088 52.079 28.9251" fill="white"/>
<path fill-rule="evenodd" clip-rule="evenodd" d="M10.5721 40.5334C10.5721 40.5334 10.8714 39.5399 12.0928 39.185C13.3142 38.8302 14.3438 39.3152 14.3319 39.5047C14.32 39.6941 14.2363 39.4572 13.2186 40.1434C12.2008 40.8296 11.8653 41.2553 11.3024 41.2788C10.7395 41.3022 10.3684 41.0894 10.5721 40.534" fill="white"/>
<path fill-rule="evenodd" clip-rule="evenodd" d="M32.8777 36.7943C32.8777 36.7943 31.7213 34.5821 32.6609 32.2508C33.6006 29.9194 36.0571 29.1345 38.4893 28.6346C40.9221 28.1348 42.5934 28.3508 42.942 28.742C42.942 28.742 42.7833 27.6473 43.781 26.6618C44.7788 25.6763 46.0614 25.3789 46.0614 25.3789L46.8848 25.7387C46.8848 25.7387 44.224 26.3798 43.7173 27.8349C43.7173 27.8349 43.4162 28.4921 43.4799 29.1487C43.543 29.8059 43.6542 30.0873 42.9732 30.7284C42.2922 31.3696 41.8568 30.9209 41.6887 30.4717C41.5213 30.0225 41.5481 28.9882 41.5481 28.9882H41.8743C41.8743 28.9882 41.7837 30.4995 42.2729 30.5711C42.7621 30.6426 43.0063 30.0255 42.9795 29.5516C42.952 29.0777 42.862 28.6124 41.1683 28.7377C39.4752 28.863 36.2527 29.3295 34.4565 30.8907C32.6603 32.4519 33.0795 35.4565 33.0795 35.4565C33.0795 35.4565 33.9298 33.5287 36.7319 32.8191C39.5339 32.1094 43.1625 32.4167 43.1625 32.4167C43.1625 32.4167 46.9573 32.7561 48.5136 34.3748C50.0699 35.9934 48.8666 37.9057 48.8666 37.9057H49.1658C49.1658 37.9057 48.0163 40.2358 46.6987 41.0639C45.381 41.8921 43.8629 42.735 41.1545 42.7665C36.8956 42.8158 34.2447 40.5166 32.8765 36.795" fill="white"/>
<path fill-rule="evenodd" clip-rule="evenodd" d="M33.6663 36.1322C33.6663 36.1322 33.8819 34.8783 35.8343 34.0859C37.7866 33.2936 40.3613 33.2578 42.2293 33.2578C44.0973 33.2578 47.6066 34.89 48.2295 35.5762C48.8524 36.2624 48.8524 36.7943 48.2895 37.1491C47.7265 37.504 45.9778 38.8523 42.5167 38.8764C39.0555 38.8998 35.6306 38.3321 34.313 37.3269C34.313 37.3269 33.3852 36.7641 33.6663 36.1322Z" fill="white"/>
<path fill-rule="evenodd" clip-rule="evenodd" d="M49.4447 35.5539C49.4996 35.5539 51.3964 34.8844 51.9443 34.7696C52.4922 34.6548 53.1289 34.6073 53.7861 35.3311C54.4434 36.055 54.101 37.4144 53.4781 37.9081C52.8552 38.4017 52.2661 38.9226 50.9578 38.8818C49.6502 38.8411 48.9648 38.5844 48.9648 38.5844L49.4234 37.4076C49.4234 37.4076 50.6698 37.9963 51.9568 37.4687C53.2444 36.9411 53.0252 35.9741 52.9221 35.8723C52.8196 35.7711 51.4907 35.71 50.4224 36.1494L49.484 36.4604L49.4428 35.5539H49.4447Z" fill="white"/>
<path fill-rule="evenodd" clip-rule="evenodd" d="M35.5399 42.3109C35.5399 42.3109 38.3269 44.056 41.6969 43.7863C45.0669 43.5166 46.943 41.8789 46.943 41.8789C46.943 41.8789 45.4311 44.0739 42.1342 44.2362C38.8374 44.3978 36.8938 43.7413 35.4062 42.6663C35.4062 42.6663 34.9451 42.4707 35.1294 42.2948C35.3144 42.119 35.5399 42.3109 35.5399 42.3109Z" fill="white"/>
<path fill-rule="evenodd" clip-rule="evenodd" d="M46.8122 26.9478C46.8122 26.9478 45.1454 27.534 44.8542 29.0366C44.8542 29.0366 43.5941 29.4587 43.7709 30.4047C43.9477 31.3513 44.5075 31.9894 44.843 32.1325C45.1779 32.2757 45.0329 31.9178 45.0873 31.8734C45.1416 31.8283 45.4222 31.6944 45.2591 31.4976C45.096 31.3007 44.5344 31.1575 44.6162 30.6386C44.6981 30.1196 45.1597 29.6815 45.6033 29.708C46.0469 29.7345 48.7909 30.5806 49.265 32.4343C49.7386 34.288 49.2582 34.9588 49.2819 35.0655C49.3057 35.1723 49.5474 35.4179 49.7049 35.0729C49.8623 34.728 50.5858 32.4078 48.7121 30.8293C46.8385 29.2508 45.3784 29.115 45.3784 29.115C45.3784 29.115 45.399 28.3646 45.8401 27.9135C46.2812 27.4624 46.9803 27.3298 47.0528 27.2224C47.1252 27.115 47.094 26.8849 46.8122 26.9484" fill="white"/>
<path fill-rule="evenodd" clip-rule="evenodd" d="M35.1686 35.3607C35.6459 37.829 42.5001 38.0036 44.1545 37.9462C44.1545 37.9462 46.338 37.8642 46.8903 37.2878C47.4426 36.7115 47.7994 36.0395 47.5476 35.7198C47.2958 35.4002 44.2307 34.029 41.7429 34.0919C40.1173 34.1327 37.1016 34.3733 35.5959 34.9762C35.4379 35.0398 35.2492 35.1552 35.168 35.3607" fill="black"/>
<path fill-rule="evenodd" clip-rule="evenodd" d="M43.8545 36.3304C43.8545 36.3304 42.9349 36.2348 42.8305 35.6381C42.7262 35.0413 43.3741 34.9099 43.6015 34.6088C43.8289 34.3076 43.4347 34.1052 42.9449 33.6042C42.4557 33.1031 43.2166 32.7452 43.2441 32.262C43.271 31.7788 43.5796 31.6178 43.9601 32.1546C44.3406 32.6915 44.4249 32.9365 44.9491 32.7156C45.4733 32.4946 45.5457 32.0565 45.5457 31.7702C45.5457 31.4839 45.9537 32.1731 45.8719 32.7279C45.79 33.2827 45.319 33.8553 45.1109 34.2583C44.9022 34.6612 45.0203 34.9476 45.0841 35.4394C45.1478 35.9318 45.0547 36.2113 43.8551 36.3311" fill="white"/>
<path fill-rule="evenodd" clip-rule="evenodd" d="M42.4275 29.8206C42.4275 29.8206 42.1182 29.7083 42.1376 29.3831C42.157 29.0579 42.3769 29.1937 42.5293 29.4411C42.6824 29.6886 42.6393 29.8397 42.4275 29.82" fill="white"/>
<path fill-rule="evenodd" clip-rule="evenodd" d="M32.4548 37.4922C32.4548 37.4922 32.8278 37.4021 32.7859 37.7211C32.7441 38.0402 30.3831 39.1559 30.4518 40.83C30.7173 47.2755 47.6321 47.3952 51.648 42.8337C52.2822 42.1135 52.8182 40.954 52.0991 40.0426C52.0991 40.0426 51.7524 39.5082 51.3638 39.3755C51.3638 39.3755 51.4 38.8843 51.9648 39.3293C52.5296 39.7748 53.5485 40.8535 52.9132 42.6412C50.724 48.8021 32.8853 49.363 30.1988 43.0213C29.8602 42.2215 29.6515 41.5378 29.7733 40.793C29.9951 39.4403 31.0372 38.1525 32.4548 37.4916" fill="white"/>
</g>
</g>
<defs>
<clipPath id="clip0_512_910">
<rect width="81.8435" height="56.2157" fill="white" transform="translate(0.78125 0.0351562)"/>
</clipPath>
</defs>
</svg>
