<svg width="108" height="45" viewBox="0 0 108 45" fill="none" xmlns="http://www.w3.org/2000/svg">
<g clip-path="url(#clip0_512_872)">
<path d="M13.3342 21.4701C9.94101 20.5378 9.4448 17.2951 9.42188 13.7357L9.45299 2.52507H15.5467C16.693 2.52507 17.8394 2.8304 18.7958 3.51453C20.083 4.43541 21.357 6.17269 20.8477 9.39578C20.1501 13.8157 15.1586 14.5635 11.3265 13.5855C11.3952 16.0934 13.2163 18.2519 15.5156 18.5605C16.0773 18.6356 16.6161 18.6699 17.1385 18.6699C22.6229 18.6699 25.425 14.2484 25.425 6.98907V2.52344C27.174 2.52344 28.5922 3.93742 28.5954 5.68122C28.6053 13.6916 28.6544 9.18189 28.6544 20.4594L25.6084 12.5993C24.5112 18.0772 21.2817 21.9044 16.2263 21.9044C16.2263 21.9044 14.9227 21.9126 13.3359 21.4701" fill="white"/>
<path d="M45.6428 21.4701C44.0559 21.9126 42.7523 21.9044 42.7523 21.9044C37.6953 21.9044 34.4658 18.0772 33.3702 12.5993L30.3242 20.4594C30.3242 9.18189 30.3733 13.6916 30.3832 5.68122C30.3848 3.93742 31.8047 2.52344 33.5537 2.52344V6.98907C33.5537 14.2484 36.3557 18.6699 41.8402 18.6699C42.3626 18.6699 42.9013 18.6356 43.4631 18.5605C45.7623 18.2503 47.5834 16.0934 47.6522 13.5855C43.8201 14.5635 38.8285 13.8141 38.1309 9.39578C37.6216 6.17269 38.8957 4.43541 40.1829 3.51453C41.1392 2.8304 42.2856 2.52507 43.4319 2.52507H49.5256L49.5567 13.7357C49.5322 17.2968 49.036 20.5378 45.6444 21.4701" fill="white"/>
<path d="M45.6444 23.4343C49.0376 24.3666 49.5338 27.6093 49.5567 31.1688L49.5256 42.3794H43.4319C42.2856 42.3794 41.1392 42.0741 40.1829 41.3899C38.8957 40.469 37.6216 38.7318 38.1309 35.5087C38.8285 31.0904 43.8201 30.341 47.6522 31.319C47.5834 28.811 45.7623 26.6525 43.4631 26.3439C42.9013 26.2688 42.3626 26.2345 41.8401 26.2345C36.3557 26.2345 33.5537 30.6561 33.5537 37.9154V42.381C31.8047 42.381 30.3864 40.9687 30.3832 39.2232C30.3733 31.0822 30.3242 35.8238 30.3242 24.5381L33.3702 32.3052C34.4675 26.8272 37.6969 23 42.7523 23C42.7523 23 44.0559 22.9918 45.6428 23.4343" fill="white"/>
<path d="M13.3359 23.4343C14.9227 22.9918 16.2263 23 16.2263 23C21.2834 23 24.5128 26.8272 25.6084 32.3052L28.6544 24.5381C28.6544 35.8238 28.6053 31.0822 28.5954 39.2232C28.5938 40.967 27.1756 42.381 25.425 42.381V37.9154C25.425 30.6561 22.6229 26.2345 17.1385 26.2345C16.6161 26.2345 16.0773 26.2688 15.5156 26.3439C13.2163 26.6542 11.3952 28.811 11.3265 31.319C15.1586 30.341 20.1501 31.0904 20.8477 35.5087C21.357 38.7318 20.083 40.469 18.7958 41.3899C17.8394 42.0741 16.693 42.3794 15.5467 42.3794H9.45299L9.42188 31.1688C9.44644 27.6077 9.94265 24.3666 13.3342 23.4343" fill="white"/>
<path d="M29.4684 51.2825L0.550781 22.4526L29.4684 -6.37891L58.3859 22.4526L29.4684 51.2841V51.2825ZM1.85762 22.4526L29.4684 49.9811L57.0791 22.4526L29.4684 -5.07595L1.85762 22.4526Z" fill="white"/>
<path d="M30.9769 0.118698C30.9769 0.949779 30.3005 1.62411 29.4669 1.62411C28.6334 1.62411 27.957 0.949779 27.957 0.118698C27.957 -0.712384 28.6334 -1.38672 29.4669 -1.38672C30.3005 -1.38672 30.9769 -0.712384 30.9769 0.118698Z" fill="white"/>
<path d="M30.9769 44.7828C30.9769 45.6138 30.3005 46.2882 29.4669 46.2882C28.6334 46.2882 27.957 45.6138 27.957 44.7828C27.957 43.9517 28.6334 43.2773 29.4669 43.2773C30.3005 43.2773 30.9769 43.9517 30.9769 44.7828Z" fill="white"/>
<path d="M51.8693 23.9561C51.0357 23.9561 50.3594 23.2818 50.3594 22.4507C50.3594 21.6196 51.0357 20.9453 51.8693 20.9453C52.7028 20.9453 53.3792 21.6196 53.3792 22.4507C53.3792 23.2818 52.7028 23.9561 51.8693 23.9561Z" fill="white"/>
<path d="M7.0685 23.9561C6.23494 23.9561 5.55859 23.2818 5.55859 22.4507C5.55859 21.6196 6.23494 20.9453 7.0685 20.9453C7.90207 20.9453 8.57841 21.6196 8.57841 22.4507C8.57841 23.2818 7.90207 23.9561 7.0685 23.9561Z" fill="white"/>
<path d="M87.332 40.6284L88.9844 31.4179L90.5877 31.2383L88.9238 40.6284H87.332Z" fill="white"/>
<path d="M93.9799 34.5508C95.2212 34.5508 95.909 35.3688 95.909 36.7028C95.909 38.5658 94.4139 40.7063 92.3521 40.7063C91.1107 40.7063 90.5195 39.9373 90.5195 38.6507C90.5195 36.5705 92.0507 34.5508 93.9799 34.5508ZM92.7369 40.4908C93.6654 40.4908 94.2681 37.978 94.2681 36.0056C94.2681 35.2006 94.1469 34.7549 93.7015 34.7549C92.8204 34.7549 92.1342 37.2563 92.1342 39.3724C92.1342 40.1545 92.3029 40.4908 92.7369 40.4908Z" fill="white"/>
<path d="M100.275 38.3232H100.239C99.5755 40.0784 98.8042 40.7038 98.0197 40.7038C97.2959 40.7038 96.8734 40.2956 96.7898 39.5608C96.7784 39.4041 96.7784 39.2245 96.7898 39.0432C96.7898 38.8751 96.8144 38.6938 96.8504 38.5028L97.4891 34.6315H99.0564L98.3931 38.635C98.3685 38.7787 98.3456 38.9469 98.321 39.1167C98.2244 39.8253 98.3685 40.0311 98.6224 40.067C98.6469 40.067 98.6699 40.0784 98.6944 40.0784C98.7305 40.0784 98.7796 40.067 98.8271 40.0539C99.4903 39.8139 100.335 37.853 100.624 35.954L100.804 34.7523L102.384 34.5352L101.456 40.6189H99.8637L100.273 38.3232H100.275Z" fill="white"/>
<path d="M102.648 40.6238L103.674 34.7442L105.229 34.5156L104.82 36.9207H104.856C105.508 35.1769 106.291 34.5515 107.075 34.5515C107.799 34.5515 108.221 34.9597 108.293 35.6945C108.318 35.8512 108.318 36.0194 108.305 36.199C108.293 36.3672 108.269 36.5599 108.244 36.7525L107.606 40.6238H106.025L106.689 36.6203C106.725 36.4635 106.749 36.2953 106.761 36.1386C106.869 35.43 106.713 35.2242 106.471 35.1883C106.446 35.1769 106.423 35.1769 106.399 35.1769C106.363 35.1769 106.313 35.1883 106.266 35.2014C105.591 35.4414 104.771 37.3893 104.456 39.2899L104.252 40.6238H102.648Z" fill="white"/>
<path d="M83.0555 38.2304H71.0188C70.7928 38.2304 70.6094 38.0476 70.6094 37.8223C70.6094 37.5969 70.7928 37.4141 71.0188 37.4141H83.0555C83.2815 37.4141 83.4649 37.5969 83.4649 37.8223C83.4649 38.0476 83.2815 38.2304 83.0555 38.2304Z" fill="white"/>
<path d="M95.8693 16.0057C95.8693 23.8185 89.5169 30.1521 81.6808 30.1521C73.8446 30.1521 67.4922 23.8185 67.4922 16.0057C67.4922 8.1929 73.8446 1.85938 81.6808 1.85938C89.5169 1.85938 95.8693 8.1929 95.8693 16.0057ZM81.6808 2.3639C76.6303 2.3639 72.5361 8.47047 72.5361 16.0041C72.5361 23.5377 76.6303 29.6443 81.6808 29.6443C86.7313 29.6443 90.8254 23.5377 90.8254 16.0041C90.8254 8.47047 86.7313 2.3639 81.6808 2.3639Z" fill="white"/>
<path d="M104.571 30.1824V16.072C104.571 9.86422 107.249 6.38805 112.104 6.38805C113.411 6.38805 114.844 6.69827 116.151 7.25668V2.1657C115.155 1.91751 114.22 1.85547 113.287 1.85547C108.245 1.85547 104.342 5.57982 103.471 11.1051L99.9531 2.28979H99.5273V30.1808" fill="white"/>
</g>
<defs>
<clipPath id="clip0_512_872">
<rect width="106.83" height="44.1868" fill="white" transform="translate(0.550781 0.359375)"/>
</clipPath>
</defs>
</svg>
